<svg xmlns="http://www.w3.org/2000/svg" viewBox="0 0 521.08 100"><defs><style>.cls-1{fill:#03cf5d;}</style></defs><g id="Layer_2" data-name="Layer 2"><g id="NAVER_Logo" data-name="NAVER Logo"><path class="cls-1" d="M150,0,110.78,100h33.34l4.73-13.24h37.59L191.18,100h33.33L185.29,0Zm6.47,62.75,11.18-31.24,11.18,31.24Z"/><polygon class="cls-1" points="363.24 62.01 408.82 62.01 408.82 37.99 363.24 37.99 363.24 24.51 409.31 24.51 409.31 0 331.37 0 331.37 100 410.29 100 410.29 75.49 363.24 75.49 363.24 62.01"/><polygon class="cls-1" points="264.22 65.75 240.69 0 207.35 0 246.57 100 281.86 100 321.08 0 287.75 0 264.22 65.75"/><polygon class="cls-1" points="68.14 53.52 30.88 0 0 0 0 100 32.35 100 32.35 46.48 69.61 100 100.49 100 100.49 0 68.14 0 68.14 53.52"/><path class="cls-1" d="M495.8,65.69l3-1.26c11.62-4.87,17.53-15.39,17.53-28.75,0-12.64-4.61-22-13.69-27.78C494.22,2.51,483.27,0,468.19,0H426V100h31.37V72.06h11.28L487.75,100h33.33ZM474,46.57H456.86V25.49H474a10.54,10.54,0,1,1,0,21.08Z"/></g></g></svg>