<svg xmlns="http://www.w3.org/2000/svg" viewBox="0 0 280 66"><defs><style>.cls-1{fill:none;}.cls-2{fill:#171717;}.cls-3{fill:#07b;}.cls-4{fill:#fff;}</style></defs><g id="Layer_2" data-name="Layer 2"><g id="Layer_1-2" data-name="Layer 1"><rect class="cls-1" width="280" height="66"/><path class="cls-2" d="M69.84,36.91,63.91,47H59.28l8.28-13.87L59.81,19.92h4.64l5.39,9.39,5.4-9.39h4.63L72.12,33.11,80.4,47H75.77Z"/><path class="cls-2" d="M82.88,19.92H87V47h-4.1Z"/><path class="cls-2" d="M92.68,19.92h9.46a9.18,9.18,0,0,1,8.25,4.56c1.33,2.28,1.44,3.31,1.44,9,0,6.08-.3,7.14-1.52,9A9.65,9.65,0,0,1,101.88,47h-9.2Zm4.1,23.18h4.91a5.62,5.62,0,0,0,5-2.35c.91-1.37,1-2.13,1-7.15,0-4.86-.12-6-1.22-7.52a5.22,5.22,0,0,0-4.82-2.28H96.78Z"/><path class="cls-2" d="M116.89,24.56a9.81,9.81,0,0,1,16.94,0c.88,1.6,1.18,2.39,1.18,8.89s-.3,7.3-1.18,8.89a9.8,9.8,0,0,1-16.94,0c-.88-1.59-1.18-2.39-1.18-8.89S116,26.16,116.89,24.56Zm4.29,16.57a5.42,5.42,0,0,0,8.36,0c1.06-1.37,1.37-2.13,1.37-7.68s-.31-6.31-1.37-7.67a5.4,5.4,0,0,0-8.36,0c-1.06,1.36-1.37,2.12-1.37,7.67S120.12,39.76,121.18,41.13Z"/><path class="cls-2" d="M149.26,40.4a12.44,12.44,0,0,0,7.68,2.7c3.34,0,5.35-1.52,5.35-3.76,0-1.9-1.1-3.34-3.53-3.65-1.22-.15-2.17-.3-3.57-.49-4.67-.65-7.18-3.69-7.18-7.6,0-4.64,3.23-7.9,8.81-7.9a15.89,15.89,0,0,1,8.78,2.81l-2.28,3.38a12.67,12.67,0,0,0-6.69-2.09c-2.51,0-4.52,1.29-4.52,3.88,0,1.52,1.1,3,3.84,3.45.72.12,1.75.27,3,.42,5,.61,7.41,4.1,7.41,7.79,0,5-3.69,7.87-9.5,7.87a15.17,15.17,0,0,1-10.34-3.73Z"/><path class="cls-2" d="M175.33,23.57h-7.41V19.92h18.92v3.65h-7.41V47h-4.1Z"/><path class="cls-2" d="M189.24,19.92h4.1V37.36c0,3.73,2.39,5.74,5.51,5.74s5.51-2,5.51-5.74V19.92h4.1v17.9c0,5.62-4.25,9.39-9.61,9.39s-9.61-3.77-9.61-9.39Z"/><path class="cls-2" d="M213.67,19.92h9.46a9.18,9.18,0,0,1,8.25,4.56c1.33,2.28,1.44,3.31,1.44,9,0,6.08-.3,7.14-1.52,9A9.65,9.65,0,0,1,222.87,47h-9.2Zm4.1,23.18h4.91a5.62,5.62,0,0,0,5-2.35c.91-1.37,1-2.13,1-7.15,0-4.86-.12-6-1.22-7.52a5.22,5.22,0,0,0-4.82-2.28h-4.91Z"/><path class="cls-2" d="M237.61,19.92h4.1V47h-4.1Z"/><path class="cls-2" d="M247.68,24.56a9.82,9.82,0,0,1,16.95,0c.87,1.6,1.17,2.39,1.17,8.89s-.3,7.3-1.17,8.89a9.81,9.81,0,0,1-16.95,0c-.87-1.59-1.18-2.39-1.18-8.89S246.81,26.16,247.68,24.56ZM252,41.13a5.42,5.42,0,0,0,8.36,0c1.07-1.37,1.37-2.13,1.37-7.68s-.3-6.31-1.37-7.67a5.4,5.4,0,0,0-8.36,0c-1.06,1.36-1.36,2.12-1.36,7.67S250.91,39.76,252,41.13Z"/><path class="cls-2" d="M59.66,51.73v-1.9H267.74v1.9Z"/><rect class="cls-3" x="10.89" y="12.74" width="40.51" height="40.51" transform="translate(62.3 66) rotate(-180)"/><polygon class="cls-4" points="21.81 14.88 29.62 22.7 20.85 31.48 13.03 23.66 13.03 14.88 21.81 14.88"/><polygon class="cls-4" points="31.15 24.23 40.49 14.88 49.27 14.88 49.27 23.66 39.92 33 41.45 34.52 49.27 42.34 49.27 51.12 40.49 51.12 32.67 43.3 31.15 41.77 21.81 51.12 13.03 51.12 13.03 42.34 22.37 33 31.15 24.23"/></g></g></svg>