<svg xmlns="http://www.w3.org/2000/svg" viewBox="0 0 7.67 8.78"><defs><style>.cls-1{fill:#fff;}</style></defs><g id="Layer_2" data-name="Layer 2"><g id="Layer_5" data-name="Layer 5"><path class="cls-1" d="M7.49,7.13a3.75,3.75,0,0,0-.52-1,4.22,4.22,0,0,0-.83-.86,3.32,3.32,0,0,0-.62-.34,2.1,2.1,0,0,0,.3-.22A3,3,0,0,0,6.29,4a2.59,2.59,0,0,0,.25-.79,2.28,2.28,0,0,0,0-.45h0a2.57,2.57,0,0,0-.13-.83,2.7,2.7,0,0,0-.37-.74A2.88,2.88,0,0,0,5.81.84,2.22,2.22,0,0,0,5.48.56,2.76,2.76,0,0,0,4.76.17,2.55,2.55,0,0,0,3.93,0a2.26,2.26,0,0,0-.85.1,2.67,2.67,0,0,0-.75.34,2.62,2.62,0,0,0-.6.54,2.36,2.36,0,0,0-.26.36,2.81,2.81,0,0,0-.19.39,2.66,2.66,0,0,0-.19.82,2.78,2.78,0,0,0,.07.86,2.85,2.85,0,0,0,.32.76A2.65,2.65,0,0,0,2,4.81a1,1,0,0,0,.13.09,2.76,2.76,0,0,0-.39.18,3.69,3.69,0,0,0-.86.76,5.36,5.36,0,0,0-.34.49,3.4,3.4,0,0,0-.27.54A3.72,3.72,0,0,0,0,8a1.72,1.72,0,0,0,0,.33A.77.77,0,0,1,0,8.5v.28H.79l.3,0V8.42a2.57,2.57,0,0,1,0-.48,2.75,2.75,0,0,1,.19-.71,2.79,2.79,0,0,1,.36-.63,3.94,3.94,0,0,1,.5-.5,2.57,2.57,0,0,1,.62-.36,3,3,0,0,1,.71-.2,4.57,4.57,0,0,1,.74,0,3.22,3.22,0,0,1,.71.19,3,3,0,0,1,.62.37,3,3,0,0,1,.5.5,2.57,2.57,0,0,1,.36.62,2.77,2.77,0,0,1,.2.72c0,.12,0,.24,0,.36v.09l0,.39h.78l.29-.06V8.44a.61.61,0,0,0,0-.14A3.82,3.82,0,0,0,7.49,7.13ZM2.15,2.54a2.2,2.2,0,0,1,.12-.44,2,2,0,0,1,.22-.37,2.2,2.2,0,0,1,.3-.31,2.12,2.12,0,0,1,.36-.21,2.13,2.13,0,0,1,.43-.13,2.17,2.17,0,0,1,.51,0,2.35,2.35,0,0,1,.43.13,2.5,2.5,0,0,1,.35.21,2.27,2.27,0,0,1,.31.31,2,2,0,0,1,.21.37,1.73,1.73,0,0,1,.12.43,1.77,1.77,0,0,1,0,.23,1.77,1.77,0,0,1,0,.23,2.5,2.5,0,0,1-.12.45,2.5,2.5,0,0,1-.21.35,2.27,2.27,0,0,1-.31.31,1.6,1.6,0,0,1-.4.23,1.68,1.68,0,0,1-.4.11,1.93,1.93,0,0,1-.48,0,1.82,1.82,0,0,1-.4-.11A1.54,1.54,0,0,1,2.8,4.1a1.52,1.52,0,0,1-.31-.31,2.5,2.5,0,0,1-.21-.35A2.42,2.42,0,0,1,2.15,3,3.23,3.23,0,0,1,2.15,2.54Z"/></g></g></svg>