<svg xmlns="http://www.w3.org/2000/svg" viewBox="0 0 8.55 8.3"><defs><style>.cls-1{fill:#fff;}</style></defs><g id="Layer_2" data-name="Layer 2"><g id="Layer_5" data-name="Layer 5"><path class="cls-1" d="M7.7,7.45H.91a.2.2,0,0,1-.11,0l.1.05L.8,7.42l.09.07L.81,7.41l.07.09L.82,7.4l.05.1a.2.2,0,0,1,0-.11V3.24a.23.23,0,0,1,0-.11l-.05.1.06-.09-.07.08.08-.08L.8,3.21l.1,0-.1,0a.2.2,0,0,1,.11,0H7.64a.2.2,0,0,1,.11,0l-.1,0,.1,0-.09-.07.08.08-.07-.08.06.09-.05-.1a.23.23,0,0,1,0,.11V7.39a.2.2,0,0,1,0,.11l.05-.1-.06.1.07-.09-.08.08.09-.07-.1.06.1-.05a.2.2,0,0,1-.11,0H7.7a.43.43,0,0,0-.3.13.41.41,0,0,0-.12.3.42.42,0,0,0,.12.3.47.47,0,0,0,.3.12l.18,0,.07,0a.72.72,0,0,0,.22-.1,1.09,1.09,0,0,0,.24-.24,1.12,1.12,0,0,0,.1-.22.9.9,0,0,0,0-.28V3.18a.73.73,0,0,0,0-.25,1.07,1.07,0,0,0-.1-.22,1.36,1.36,0,0,0-.24-.24L8,2.37l-.06,0-.18,0H.83l-.25,0a1.05,1.05,0,0,0-.29.17,1.37,1.37,0,0,0-.16.18l0,.06A1.22,1.22,0,0,0,0,3a1.35,1.35,0,0,0,0,.4V7.47a1.09,1.09,0,0,0,0,.25l.07.15L.21,8a1,1,0,0,0,.19.16l0,0,.17.07A1.27,1.27,0,0,0,1,8.3H7.7A.47.47,0,0,0,8,8.18a.44.44,0,0,0,.12-.3A.41.41,0,0,0,8,7.58.42.42,0,0,0,7.7,7.45Z"/><path class="cls-1" d="M4.27,0a3.42,3.42,0,0,0-.44,0,1.68,1.68,0,0,0-.32.09,2.58,2.58,0,0,0-.68.35C2.72.57,2.6.67,2.5.77a3,3,0,0,0-.28.34,3,3,0,0,0-.39.72,3.64,3.64,0,0,0-.19.72,1.49,1.49,0,0,0,0,.21.45.45,0,0,0,0,.16.42.42,0,0,0,.09.14.47.47,0,0,0,.3.12H6.51a.29.29,0,0,0,.16,0,.29.29,0,0,0,.14-.08L6.87,3a.42.42,0,0,0,.06-.21,3.58,3.58,0,0,0-.18-.85,3.14,3.14,0,0,0-.37-.73A2.88,2.88,0,0,0,5.86.6L5.51.34A3.39,3.39,0,0,0,5.12.16,1.7,1.7,0,0,0,4.8.06L4.53,0,4.36,0H4.27a.32.32,0,0,0-.16,0A.29.29,0,0,0,4,.12a.29.29,0,0,0-.08.14.33.33,0,0,0,0,.17l0,.11A.5.5,0,0,0,4,.73a.49.49,0,0,0,.3.12l.27,0-.11,0a2.19,2.19,0,0,1,.5.14l-.1,0a2.13,2.13,0,0,1,.46.27l-.08-.06a2.5,2.5,0,0,1,.43.43L5.57,1.5a2.84,2.84,0,0,1,.35.61l0-.1a3.37,3.37,0,0,1,.21.77l0-.11a.28.28,0,0,1,0,.09l.43-.43H2l.43.43a.28.28,0,0,1,0-.09l0,.11A3.37,3.37,0,0,1,2.67,2l0,.1A2.84,2.84,0,0,1,3,1.5l-.07.09a2.5,2.5,0,0,1,.43-.43l-.08.06A2.13,2.13,0,0,1,3.72,1l-.1,0a2.19,2.19,0,0,1,.5-.14L4,.87l.26,0a.33.33,0,0,0,.17,0A.22.22,0,0,0,4.57.73.24.24,0,0,0,4.66.59a.32.32,0,0,0,0-.16l0-.12A.41.41,0,0,0,4.57.12.45.45,0,0,0,4.27,0Z"/><ellipse class="cls-1" cx="4.25" cy="5.87" rx="0.36" ry="0.49"/><circle class="cls-1" cx="4.27" cy="5.21" r="0.58"/></g></g></svg>