<?xml version="1.0" encoding="iso-8859-1"?>
<!-- Generator: Adobe Illustrator 19.0.0, SVG Export Plug-In . SVG Version: 6.00 Build 0)  -->
<svg version="1.1" id="Capa_1" xmlns="http://www.w3.org/2000/svg" xmlns:xlink="http://www.w3.org/1999/xlink" x="0px" y="0px"
	 viewBox="0 0 465 465" style="enable-background:new 0 0 465 465;" xml:space="preserve">
<g>
	<path style="fill:#FFFFFF;" d="M242.94,280.275c-49.03-19.76-95.34-38.423-130.734-64.757
		c-16.969-12.625-30.277-26.367-40.034-41.37c4.887,29.837,14.313,49.528,32.503,68.065c11.826,12.052,27.519,22.074,44.132,32.687
		c24.089,15.386,51.393,32.825,72.209,60.392c12.104,16.029,21.047,34.213,26.929,54.841h16.582v-57.903c0-4.143,3.358-7.5,7.5-7.5
		c1.568,0,3.023,0.483,4.227,1.306c4.445-3.278,8.774-6.778,12.972-10.52l-15.32-22.638
		C263.581,288.597,253.218,284.418,242.94,280.275z"/>
	<path style="fill:#FECC33;" d="M186.332,91.232c-0.264-0.053-0.522-0.123-0.775-0.203c-0.047-0.015-0.091-0.035-0.138-0.051
		c-0.186-0.063-0.37-0.129-0.549-0.206c-0.095-0.041-0.185-0.089-0.277-0.134c-0.125-0.06-0.251-0.117-0.372-0.184
		c-0.118-0.065-0.229-0.138-0.343-0.208c-0.09-0.056-0.183-0.109-0.271-0.169c-0.12-0.082-0.232-0.171-0.346-0.259
		c-0.077-0.059-0.156-0.115-0.231-0.178c-0.107-0.09-0.208-0.186-0.31-0.281c-0.075-0.07-0.152-0.138-0.224-0.211
		c-0.088-0.09-0.17-0.185-0.254-0.279c-0.078-0.088-0.159-0.173-0.233-0.265c-0.068-0.083-0.129-0.171-0.193-0.258
		c-0.081-0.109-0.164-0.217-0.239-0.331c-0.05-0.076-0.094-0.156-0.142-0.234c-0.079-0.129-0.158-0.257-0.229-0.391
		c-0.04-0.075-0.073-0.153-0.11-0.229c-0.068-0.14-0.137-0.279-0.197-0.424c-0.036-0.088-0.065-0.178-0.098-0.267
		c-0.05-0.136-0.102-0.271-0.145-0.411c-0.037-0.12-0.064-0.244-0.094-0.366c-0.028-0.112-0.06-0.221-0.082-0.335
		c-0.035-0.175-0.059-0.354-0.081-0.532c-0.008-0.065-0.021-0.128-0.028-0.193c-0.023-0.232-0.034-0.466-0.035-0.703
		c0-0.016-0.002-0.032-0.002-0.048c0-0.005,0-0.011,0-0.016c0-0.008-0.001-0.015-0.001-0.022C180.311,45.879,149.419,15,111.45,15
		H83.245c-8.534,0-15.549,6.582-16.264,14.934h41.949c4.142,0,7.5,3.357,7.5,7.5s-3.358,7.5-7.5,7.5H66.912
		c0.007,18.003,0.044,34.235,0.229,48.946c21.522-5.162,42.192-4.876,62.893,0.851c20.762,5.745,41.215,16.952,62.526,34.264
		c3.215,2.611,3.705,7.335,1.093,10.55c-0.229,0.282-0.479,0.535-0.738,0.775l143.817,155.457L207.183,104.343
		C202.881,97.985,195.088,93.087,186.332,91.232z"/>
	<path style="fill:#00E4C5;" d="M158.308,298.964c8.015,10.255,14.564,20.657,19.858,32.596
		c7.123,16.066,11.779,34.379,14.477,58.573h15.519v-46.756C193.732,324.572,176.094,310.916,158.308,298.964z"/>
	<path style="fill:#FECC33;" d="M299.376,303.751l78.715,116.315h20.741c4.142,0,7.5,3.357,7.5,7.5l0,0.004h19.59l-60.775-89.806
		C344.891,325.044,322.498,313.975,299.376,303.751z"/>
	<path style="fill:#E43017;" d="M187.827,142.315c-1.662,0-3.334-0.549-4.724-1.679c-39.18-31.825-76.106-41.858-115.699-31.341
		c0.063,2.791,0.133,5.526,0.213,8.199c3.559,34.047,20.814,61.64,53.542,85.989c33.842,25.179,79.281,43.491,127.388,62.879
		c10.974,4.423,22.043,8.885,33.072,13.473c0.034,0.013,0.066,0.028,0.1,0.042c21.949,9.133,43.733,18.779,64.306,29.629
		l-9.292-13.731L192.915,140.319C191.498,141.631,189.671,142.315,187.827,142.315z"/>
	<path d="M441.187,423.363l-64.544-95.375c-0.011-0.016-0.021-0.032-0.033-0.048L219.606,95.937
		c-5.526-8.166-14.264-14.469-24.494-17.837C192.127,34.537,155.757,0,111.45,0H83.245c-16.83,0-30.597,13.338-31.301,29.998
		c-16.389,0.994-29.42,14.636-29.42,31.271c0,4.143,3.358,7.5,7.5,7.5s7.5-3.357,7.5-7.5c0-8.347,6.297-15.241,14.388-16.208
		c0.009,20.722,0.063,39.472,0.359,56.435c-0.013,0.041-0.026,0.081-0.038,0.122c-0.033,0.109-0.057,0.22-0.085,0.33
		c-0.031,0.122-0.066,0.242-0.091,0.367c-0.038,0.189-0.064,0.381-0.088,0.573c-0.006,0.049-0.016,0.096-0.021,0.145
		c-0.028,0.275-0.04,0.552-0.037,0.831c0.002,5.061,0.267,10.01,0.77,14.859c0.687,21.999,1.987,40.652,4.447,56.486
		c5.242,33.73,15.915,56.188,36.839,77.512c0.01,0.01,0.02,0.02,0.03,0.029c0.001,0.001,0.002,0.002,0.002,0.002
		c3.915,3.941,7.674,7.699,11.284,11.307c46.311,46.285,66.745,66.721,73.063,133.571l0,0.005c0,0.452,0.047,0.891,0.123,1.321
		c1.326,14.584,1.999,31.348,2.131,51.046h-73.296c-4.142,0-7.5,3.357-7.5,7.5s3.358,7.5,7.5,7.5h80.82h83.881
		c4.142,0,7.5-3.357,7.5-7.5s-3.358-7.5-7.5-7.5h-15.611c-0.375-16.03-1.962-30.964-4.794-44.867h20.428c4.142,0,7.5-3.357,7.5-7.5
		v-65.403c0-2.574-1.298-4.843-3.273-6.194c-1.204-0.823-2.659-1.306-4.227-1.306c-4.142,0-7.5,3.357-7.5,7.5v57.903h-16.582
		c-5.882-20.628-14.826-38.812-26.929-54.841c-20.816-27.566-48.12-45.006-72.209-60.392
		c-16.614-10.612-32.306-20.635-44.132-32.687c-18.189-18.537-27.615-38.228-32.503-68.065c9.757,15.003,23.065,28.745,40.034,41.37
		c35.395,26.334,81.705,44.997,130.734,64.757c10.279,4.143,20.641,8.322,30.967,12.602l15.32,22.638l78.673,116.254
		c1.395,2.062,3.722,3.297,6.211,3.297h24.721c4.141,0,7.498-3.355,7.5-7.496l0-0.004c0-4.143-3.358-7.5-7.5-7.5h-20.741
		l-78.715-116.315c23.121,10.224,45.515,21.293,65.771,34.013l60.775,89.806l2.842,4.199c1.45,2.143,3.813,3.298,6.218,3.298
		c1.446,0,2.909-0.418,4.197-1.29C442.609,431.456,443.508,426.793,441.187,423.363z M346.025,309.507
		c-20.573-10.85-42.357-20.496-64.306-29.629c-0.033-0.014-0.066-0.028-0.1-0.042c-11.029-4.589-22.098-9.051-33.072-13.473
		c-48.107-19.388-93.545-37.7-127.388-62.879c-32.727-24.349-49.983-51.941-53.542-85.989c-0.08-2.674-0.15-5.408-0.213-8.199
		c39.593-10.517,76.519-0.485,115.699,31.341c1.39,1.13,3.063,1.679,4.724,1.679c1.844,0,3.67-0.684,5.088-1.996
		c0.259-0.24,0.509-0.493,0.738-0.775c2.612-3.215,2.123-7.938-1.093-10.55c-21.312-17.312-41.764-28.519-62.526-34.264
		c-20.702-5.726-41.371-6.012-62.893-0.851c-0.184-14.711-0.222-30.943-0.229-48.946h42.018c4.142,0,7.5-3.357,7.5-7.5
		s-3.358-7.5-7.5-7.5H66.981C67.695,21.582,74.71,15,83.245,15h28.206c37.969,0,68.861,30.879,68.882,68.844
		c0,0.008,0.001,0.015,0.001,0.022c0,0.006,0,0.011,0,0.016c0,0.016,0.002,0.032,0.002,0.048c0.001,0.236,0.012,0.471,0.035,0.703
		c0.006,0.065,0.02,0.129,0.028,0.193c0.023,0.179,0.046,0.357,0.081,0.532c0.023,0.114,0.055,0.223,0.082,0.335
		c0.031,0.122,0.057,0.246,0.094,0.366c0.042,0.14,0.094,0.275,0.145,0.411c0.033,0.089,0.062,0.179,0.098,0.267
		c0.06,0.145,0.129,0.284,0.197,0.424c0.037,0.076,0.071,0.155,0.11,0.229c0.071,0.134,0.15,0.262,0.229,0.391
		c0.047,0.078,0.092,0.157,0.142,0.234c0.075,0.114,0.158,0.222,0.239,0.331c0.064,0.086,0.125,0.174,0.193,0.258
		c0.074,0.092,0.154,0.177,0.233,0.265c0.084,0.094,0.165,0.189,0.254,0.279c0.072,0.073,0.149,0.14,0.224,0.211
		c0.102,0.095,0.202,0.192,0.31,0.281c0.074,0.062,0.154,0.118,0.231,0.178c0.114,0.088,0.227,0.177,0.346,0.259
		c0.088,0.06,0.18,0.113,0.271,0.169c0.113,0.071,0.225,0.144,0.343,0.208c0.121,0.067,0.247,0.124,0.372,0.184
		c0.093,0.044,0.182,0.093,0.277,0.134c0.179,0.077,0.363,0.143,0.549,0.206c0.047,0.016,0.091,0.036,0.138,0.051
		c0.253,0.081,0.511,0.15,0.775,0.203c8.756,1.855,16.548,6.753,20.851,13.111l129.549,191.433L346.025,309.507z M208.161,390.133
		h-15.519c-2.699-24.194-7.354-42.507-14.477-58.573c-5.293-11.939-11.842-22.341-19.858-32.596
		c17.787,11.952,35.425,25.608,49.854,44.413V390.133z M195.596,450c-0.114-16.867-0.622-31.678-1.586-44.867h21.651
		c4.142,0,7.5-3.357,7.5-7.5v-30.171c10.512,21.236,17.362,47.876,18.225,82.538H195.596z"/>
</g>
<g>
</g>
<g>
</g>
<g>
</g>
<g>
</g>
<g>
</g>
<g>
</g>
<g>
</g>
<g>
</g>
<g>
</g>
<g>
</g>
<g>
</g>
<g>
</g>
<g>
</g>
<g>
</g>
<g>
</g>
</svg>
