<?xml version="1.0" encoding="iso-8859-1"?>
<!-- Generator: Adobe Illustrator 19.0.0, SVG Export Plug-In . SVG Version: 6.00 Build 0)  -->
<svg version="1.1" id="Capa_1" xmlns="http://www.w3.org/2000/svg" xmlns:xlink="http://www.w3.org/1999/xlink" x="0px" y="0px"
	 viewBox="0 0 470 470" style="enable-background:new 0 0 470 470;" xml:space="preserve">
<g>
	<path style="fill:#FFFFFF;" d="M425.607,239.322c-0.09-1.749,0.436-3.473,1.483-4.875c17.838-23.857,27.267-52.26,27.267-82.138
		c0-75.713-61.597-137.31-137.31-137.31c-30.525,0-59.429,9.812-83.583,28.374c-1.388,1.067-3.095,1.615-4.855,1.548
		c-2.604-0.099-5.245-0.149-7.851-0.149c-54.797,0-106.306,21.331-145.038,60.064c-79.977,79.977-79.977,210.109,0,290.085
		C114.463,433.664,165.973,455,220.763,455s106.301-21.336,145.043-60.079C406.777,353.95,428.573,297.237,425.607,239.322z
		 M196.943,403.866c-71.774,0-130.168-58.393-130.168-130.168S125.169,143.53,196.943,143.53c29.337,0,57.036,9.531,80.104,27.563
		c3.264,2.551,3.841,7.264,1.29,10.528c-0.049,0.062-0.103,0.116-0.153,0.177c3.768,3.333,7.328,6.894,10.661,10.661
		c0.06-0.05,0.114-0.104,0.176-0.153c3.264-2.55,7.978-1.974,10.528,1.29c18.03,23.065,27.562,50.765,27.562,80.103
		C327.111,345.473,268.718,403.866,196.943,403.866z M319.611,76.656c-4.411,0-8-3.589-8-8s3.589-8,8-8s8,3.589,8,8
		S324.022,76.656,319.611,76.656z M359.611,96.656c-4.411,0-8-3.589-8-8s3.589-8,8-8s8,3.589,8,8S364.022,96.656,359.611,96.656z
		 M373.611,294.656c4.411,0,8,3.589,8,8s-3.589,8-8,8s-8-3.589-8-8S369.2,294.656,373.611,294.656z"/>
	<path style="fill:#3D2A20;" d="M469.357,152.31C469.357,68.326,401.031,0,317.048,0c-32.953,0-64.206,10.311-90.559,29.846
		c-1.912-0.049-3.83-0.074-5.73-0.074c-58.803,0-114.079,22.892-155.646,64.458C23.539,135.804,0.643,191.082,0.643,249.879
		s22.896,114.074,64.471,155.649C106.689,447.104,161.967,470,220.763,470c58.797,0,114.074-22.896,155.65-64.472
		c43.334-43.334,66.68-103.072,64.296-164.284C459.46,215.232,469.357,184.542,469.357,152.31z M75.721,394.921
		c-79.977-79.977-79.977-210.108,0-290.085c38.732-38.733,90.241-60.064,145.038-60.064c2.605,0,5.247,0.05,7.851,0.149
		c1.761,0.067,3.468-0.481,4.855-1.548C257.619,24.812,286.522,15,317.048,15c75.713,0,137.31,61.597,137.31,137.31
		c0,29.877-9.429,58.28-27.267,82.138c-1.048,1.402-1.573,3.126-1.483,4.875c2.966,57.915-18.83,114.628-59.802,155.599
		C327.063,433.664,275.553,455,220.763,455S114.463,433.664,75.721,394.921z"/>
	<path style="fill:#FFCB59;" d="M267.809,182.91c-20.403-15.949-44.908-24.38-70.865-24.38
		c-63.504,0-115.168,51.664-115.168,115.168s51.664,115.168,115.168,115.168s115.168-51.664,115.168-115.168
		c0-25.958-8.431-50.462-24.38-70.864c-2.502-3.201-1.988-7.794,1.114-10.375c-3.333-3.768-6.894-7.328-10.661-10.661
		C275.601,184.898,271.009,185.413,267.809,182.91z M196.943,188.531c-46.961,0-85.167,38.206-85.167,85.167
		c0,4.142-3.357,7.5-7.5,7.5s-7.5-3.358-7.5-7.5c0-55.232,44.935-100.167,100.167-100.167c4.143,0,7.5,3.358,7.5,7.5
		S201.086,188.531,196.943,188.531z"/>
	<path style="fill:#FFFFFF;" d="M196.943,173.531c-55.232,0-100.167,44.935-100.167,100.167c0,4.142,3.357,7.5,7.5,7.5
		s7.5-3.358,7.5-7.5c0-46.961,38.206-85.167,85.167-85.167c4.143,0,7.5-3.358,7.5-7.5S201.086,173.531,196.943,173.531z"/>
	<path style="fill:#3D2A20;" d="M359.611,80.656c-4.411,0-8,3.589-8,8s3.589,8,8,8s8-3.589,8-8S364.022,80.656,359.611,80.656z"/>
	<path style="fill:#3D2A20;" d="M319.611,60.656c-4.411,0-8,3.589-8,8s3.589,8,8,8s8-3.589,8-8S324.022,60.656,319.611,60.656z"/>
	<path style="fill:#3D2A20;" d="M373.611,310.656c4.411,0,8-3.589,8-8s-3.589-8-8-8s-8,3.589-8,8S369.2,310.656,373.611,310.656z"/>
	<path style="fill:#3D2A20;" d="M289.021,192.306c-0.062,0.048-0.116,0.103-0.176,0.153c-3.101,2.582-3.616,7.174-1.114,10.375
		c15.949,20.402,24.38,44.907,24.38,70.864c0,63.504-51.664,115.168-115.168,115.168S81.775,337.202,81.775,273.698
		S133.439,158.53,196.943,158.53c25.957,0,50.462,8.431,70.865,24.38c3.201,2.503,7.793,1.988,10.375-1.113
		c0.05-0.06,0.104-0.115,0.153-0.177c2.551-3.264,1.974-7.977-1.29-10.528c-23.067-18.032-50.767-27.563-80.104-27.563
		c-71.774,0-130.168,58.393-130.168,130.168s58.394,130.168,130.168,130.168s130.168-58.393,130.168-130.168
		c0-29.338-9.531-57.037-27.562-80.103C296.999,190.333,292.285,189.756,289.021,192.306z"/>
</g>
<g>
</g>
<g>
</g>
<g>
</g>
<g>
</g>
<g>
</g>
<g>
</g>
<g>
</g>
<g>
</g>
<g>
</g>
<g>
</g>
<g>
</g>
<g>
</g>
<g>
</g>
<g>
</g>
<g>
</g>
</svg>
