<?xml version="1.0" encoding="iso-8859-1"?>
<!-- Generator: Adobe Illustrator 19.0.0, SVG Export Plug-In . SVG Version: 6.00 Build 0)  -->
<svg version="1.1" id="Capa_1" xmlns="http://www.w3.org/2000/svg" xmlns:xlink="http://www.w3.org/1999/xlink" x="0px" y="0px"
	 viewBox="0 0 470 470" style="enable-background:new 0 0 470 470;" xml:space="preserve">
<g>
	<path style="fill:#FFFFFF;" d="M358.392,170.146c-3.369,1.107-6.816,2.241-10.677,3.266v54.615
		c0,19.692-16.021,35.714-35.714,35.714s-35.714-16.021-35.714-35.714v-56.813c-1.102-0.354-2.183-0.709-3.249-1.06
		c-3.679-1.208-7.235-2.377-11.226-3.371v25.604c0,14.787-12.03,26.817-26.817,26.817s-26.817-12.03-26.817-26.817v-25.604
		c-3.977,0.993-7.52,2.158-11.186,3.364c-7.473,2.458-15.201,4.999-26.912,6.242c-4.118,0.438-7.812-2.547-8.25-6.666
		c-0.008-0.078-0.007-0.155-0.013-0.233c-2.352,0.11-4.844,0.174-7.531,0.174c-2.686,0-5.176-0.064-7.527-0.174
		c-0.006,0.078-0.005,0.155-0.013,0.233c-0.409,3.85-3.663,6.708-7.449,6.709c-0.265,0-0.532-0.015-0.801-0.043
		c-11.708-1.243-19.434-3.785-26.904-6.243c-7.188-2.366-14.088-4.633-24.757-5.672v188.89h296.331V164.475
		C372.49,165.513,365.584,167.78,358.392,170.146z M133.453,285.4c-4.411,0-8-3.589-8-8s3.589-8,8-8s8,3.589,8,8
		S137.864,285.4,133.453,285.4z M165.521,317.468c-4.411,0-8-3.589-8-8s3.589-8,8-8s8,3.589,8,8S169.932,317.468,165.521,317.468z"
		/>
	<path style="fill:#6B4833;" d="M161.817,169.491c-0.303-4.024,2.638-7.588,6.679-8.017c10.124-1.074,16.771-3.261,23.809-5.575
		c6.418-2.111,13.054-4.294,22.276-5.656c2.158-0.318,4.346,0.316,5.997,1.742c1.651,1.425,2.6,3.497,2.6,5.678v34.725
		c0,6.517,5.301,11.817,11.817,11.817s11.817-5.301,11.817-11.817v-34.725c0-2.181,0.949-4.253,2.6-5.678
		c1.65-1.424,3.837-2.061,5.996-1.742c9.233,1.364,15.882,3.549,22.312,5.661c2.739,0.899,5.326,1.75,8.114,2.541
		c3.226,0.915,5.453,3.861,5.453,7.215v62.367c0,11.422,9.292,20.714,20.714,20.714s20.714-9.292,20.714-20.714v-60.556
		c0-3.565,2.51-6.638,6.003-7.35c5.615-1.143,10.168-2.64,14.988-4.225c9.183-3.021,18.639-6.13,35.21-6.855v-32.406H81.084v32.406
		c16.565,0.727,26.019,3.837,35.197,6.856c7.034,2.314,13.679,4.501,23.799,5.576c4.041,0.429,6.981,3.993,6.679,8.017
		c2.352,0.11,4.842,0.174,7.527,0.174C156.973,169.665,159.465,169.601,161.817,169.491z"/>
	<path style="fill:#3D2A20;" d="M403.916,156.383v-39.748H462.5c4.142,0,7.5-3.357,7.5-7.5V61.57c0-4.143-3.358-7.5-7.5-7.5H7.5
		c-4.142,0-7.5,3.357-7.5,7.5v47.564c0,4.143,3.358,7.5,7.5,7.5h58.584v39.748c0,3.539,2.454,6.497,5.75,7.286v189.696H7.5
		c-4.142,0-7.5,3.357-7.5,7.5v47.564c0,4.143,3.358,7.5,7.5,7.5h455c4.142,0,7.5-3.357,7.5-7.5v-47.564c0-4.143-3.358-7.5-7.5-7.5
		h-64.334V163.669C401.462,162.88,403.916,159.922,403.916,156.383z M455,400.93H15v-32.564h440V400.93z M86.834,353.365v-188.89
		c10.67,1.039,17.57,3.306,24.757,5.672c7.471,2.458,15.196,5,26.904,6.243c0.269,0.028,0.536,0.043,0.801,0.043
		c3.786-0.001,7.04-2.859,7.449-6.709c0.008-0.078,0.007-0.155,0.013-0.233c0.302-4.024-2.638-7.588-6.679-8.017
		c-10.121-1.075-16.765-3.262-23.799-5.576c-9.178-3.02-18.631-6.13-35.197-6.856v-32.406h307.832v32.406
		c-16.571,0.726-26.027,3.835-35.21,6.855c-4.82,1.585-9.373,3.082-14.988,4.225c-3.494,0.712-6.003,3.784-6.003,7.35v60.556
		c0,11.422-9.292,20.714-20.714,20.714s-20.714-9.292-20.714-20.714v-62.367c0-3.354-2.227-6.3-5.453-7.215
		c-2.788-0.791-5.375-1.642-8.114-2.541c-6.43-2.112-13.078-4.297-22.312-5.661c-2.159-0.318-4.346,0.318-5.996,1.742
		c-1.651,1.425-2.6,3.497-2.6,5.678v34.725c0,6.517-5.301,11.817-11.817,11.817s-11.817-5.301-11.817-11.817v-34.725
		c0-2.181-0.949-4.253-2.6-5.678c-1.651-1.426-3.838-2.061-5.997-1.742c-9.222,1.362-15.858,3.545-22.276,5.656
		c-7.038,2.314-13.685,4.501-23.809,5.575c-4.041,0.429-6.982,3.993-6.679,8.017c0.006,0.078,0.005,0.154,0.013,0.233
		c0.438,4.119,4.132,7.104,8.25,6.666c11.711-1.243,19.439-3.784,26.912-6.242c3.666-1.206,7.209-2.371,11.186-3.364v25.604
		c0,14.787,12.03,26.817,26.817,26.817s26.817-12.03,26.817-26.817v-25.604c3.991,0.994,7.546,2.163,11.226,3.371
		c1.066,0.351,2.146,0.705,3.249,1.06v56.813c0,19.692,16.021,35.714,35.714,35.714s35.714-16.021,35.714-35.714v-54.615
		c3.861-1.024,7.308-2.158,10.677-3.266c7.193-2.365,14.098-4.633,24.774-5.671v188.891H86.834z M15,69.07h440v32.564H15V69.07z"/>
	<path style="fill:#3D2A20;" d="M165.521,301.468c-4.411,0-8,3.589-8,8s3.589,8,8,8s8-3.589,8-8S169.932,301.468,165.521,301.468z"
		/>
	<path style="fill:#3D2A20;" d="M133.453,269.4c-4.411,0-8,3.589-8,8s3.589,8,8,8s8-3.589,8-8S137.864,269.4,133.453,269.4z"/>
	<rect x="15" y="368.365" style="fill:#FFCB59;" width="440" height="32.564"/>
	<rect x="15" y="69.07" style="fill:#FFCB59;" width="440" height="32.564"/>
</g>
<g>
</g>
<g>
</g>
<g>
</g>
<g>
</g>
<g>
</g>
<g>
</g>
<g>
</g>
<g>
</g>
<g>
</g>
<g>
</g>
<g>
</g>
<g>
</g>
<g>
</g>
<g>
</g>
<g>
</g>
</svg>
