<?xml version="1.0" encoding="iso-8859-1"?>
<!-- Generator: Adobe Illustrator 19.0.0, SVG Export Plug-In . SVG Version: 6.00 Build 0)  -->
<svg version="1.1" id="Capa_1" xmlns="http://www.w3.org/2000/svg" xmlns:xlink="http://www.w3.org/1999/xlink" x="0px" y="0px"
	 viewBox="0 0 469.988 469.988" style="enable-background:new 0 0 469.988 469.988;" xml:space="preserve">
<g>
	<path style="fill:#FFFFFF;" d="M219.154,264.417c-2.392-2.111-4.734-4.296-7.01-6.572c-2.276-2.276-4.461-4.619-6.573-7.011
		L17.801,438.603c-3.745,3.744-3.745,9.838,0,13.584c3.744,3.744,9.839,3.745,13.584-0.001L219.154,264.417z"/>
	<path style="fill:#E7453F;" d="M415.142,54.846C389.447,29.151,355.284,15,318.946,15c-36.339,0-70.502,14.15-96.196,39.846
		c-25.695,25.694-39.846,59.857-39.846,96.196c0,27.995,8.407,54.695,24.013,77.23l66.194-66.194c9.594-9.592,25.203-9.592,34.797,0
		c9.594,9.595,9.594,25.204,0.001,34.798l-7.071,7.071c-2.93,2.928-7.678,2.928-10.607,0l-10.605,10.605
		c2.929,2.93,2.929,7.678,0,10.607l-37.91,37.91c22.536,15.606,49.235,24.013,77.231,24.013c36.338,0,70.501-14.15,96.195-39.846
		c25.696-25.694,39.847-59.857,39.847-96.195C454.988,114.704,440.838,80.54,415.142,54.846z M336.543,38.671
		c-0.366,4.127-4.013,7.165-8.134,6.808c-31.44-2.791-62.221,8.354-84.445,30.58c-1.465,1.464-3.385,2.196-5.304,2.196
		s-3.839-0.732-5.303-2.196c-2.929-2.93-2.929-7.678,0-10.607c25.375-25.374,60.504-38.101,96.378-34.914
		C333.861,30.904,336.909,34.545,336.543,38.671z M404.536,76.058c-1.465,1.465-3.385,2.197-5.304,2.197s-3.839-0.732-5.303-2.196
		c-10.919-10.918-23.763-19.146-38.176-24.453c-3.887-1.432-5.878-5.743-4.446-9.63s5.744-5.877,9.63-4.446
		c16.465,6.064,31.133,15.458,43.598,27.922C407.465,68.38,407.465,73.129,404.536,76.058z"/>
	<path style="fill:#F5B5B2;" d="M290.23,203.948c-2.929-2.93-2.929-7.678,0-10.607l7.071-7.071c3.745-3.744,3.745-9.838,0-13.584
		c-3.744-3.744-9.839-3.745-13.583,0.001l-67.522,67.522c2.094,2.406,4.276,4.753,6.553,7.03c2.277,2.277,4.624,4.459,7.03,6.553
		l39.238-39.238c2.93-2.928,7.678-2.928,10.607,0L290.23,203.948z"/>
	<path style="fill:#FFFFFF;" d="M360.937,37.53c-3.886-1.431-8.198,0.56-9.63,4.446s0.56,8.198,4.446,9.63
		c14.413,5.308,27.257,13.535,38.176,24.453c1.464,1.464,3.384,2.196,5.303,2.196s3.839-0.732,5.304-2.197
		c2.929-2.929,2.929-7.678-0.001-10.606C392.07,52.988,377.402,43.594,360.937,37.53z"/>
	<path style="fill:#FFFFFF;" d="M329.735,30.538c-35.874-3.187-71.004,9.54-96.378,34.914c-2.929,2.93-2.929,7.678,0,10.607
		c1.464,1.464,3.384,2.196,5.303,2.196s3.839-0.732,5.304-2.196c22.225-22.226,53.005-33.371,84.445-30.58
		c4.121,0.357,7.768-2.681,8.134-6.808C336.909,34.545,333.861,30.904,329.735,30.538z"/>
	<path style="fill:#3D2A20;" d="M425.749,44.239C397.221,15.711,359.291,0,318.946,0s-78.275,15.711-106.803,44.238
		c-28.528,28.528-44.24,66.458-44.24,106.804c0,32.018,9.905,62.51,28.249,87.994L7.195,427.996c-9.593,9.594-9.593,25.203,0,34.798
		c4.797,4.796,11.098,7.194,17.398,7.194c6.301,0,12.602-2.398,17.399-7.194l188.959-188.959
		c25.484,18.344,55.977,28.249,87.995,28.249c40.345,0,78.274-15.711,106.802-44.238c28.529-28.528,44.24-66.458,44.24-106.803
		C469.988,110.697,454.277,72.767,425.749,44.239z M318.946,287.083c-27.996,0-54.696-8.407-77.231-24.013l37.91-37.91
		c2.929-2.93,2.929-7.678,0-10.607c-2.93-2.928-7.678-2.928-10.607,0l-39.238,39.238c-2.406-2.094-4.753-4.276-7.03-6.553
		c-2.277-2.277-4.459-4.624-6.553-7.03l67.522-67.522c3.744-3.746,9.839-3.745,13.583-0.001c3.745,3.746,3.745,9.84,0,13.584
		l-7.071,7.071c-2.929,2.93-2.929,7.678,0,10.607c2.93,2.928,7.678,2.928,10.607,0l7.071-7.071
		c9.593-9.594,9.593-25.203-0.001-34.798c-9.594-9.592-25.203-9.592-34.797,0l-66.194,66.194
		c-15.606-22.536-24.013-49.235-24.013-77.23c0-36.339,14.151-70.502,39.846-96.196C248.444,29.151,282.607,15,318.946,15
		c36.338,0,70.501,14.15,96.195,39.846c25.696,25.694,39.847,59.857,39.847,96.196c0,36.338-14.15,70.501-39.847,96.195
		C389.447,272.933,355.284,287.083,318.946,287.083z M17.802,452.187c-3.745-3.746-3.745-9.84,0-13.584L205.57,250.834
		c2.112,2.392,4.297,4.735,6.573,7.011c2.276,2.276,4.618,4.461,7.01,6.572L31.386,452.186
		C27.641,455.932,21.546,455.931,17.802,452.187z"/>
</g>
<g>
</g>
<g>
</g>
<g>
</g>
<g>
</g>
<g>
</g>
<g>
</g>
<g>
</g>
<g>
</g>
<g>
</g>
<g>
</g>
<g>
</g>
<g>
</g>
<g>
</g>
<g>
</g>
<g>
</g>
</svg>
