<?xml version="1.0" encoding="iso-8859-1"?>
<!-- Generator: Adobe Illustrator 19.1.0, SVG Export Plug-In . SVG Version: 6.00 Build 0)  -->
<svg version="1.1" id="Capa_1" xmlns="http://www.w3.org/2000/svg" xmlns:xlink="http://www.w3.org/1999/xlink" x="0px" y="0px"
	 viewBox="0 0 470 470" style="enable-background:new 0 0 470 470;" xml:space="preserve">
<g>
	<path style="fill:#FFFFFF;" d="M455,235c0-121.309-98.691-220-220-220S15,113.692,15,235c0,44.492,13.222,87.357,38.236,123.961
		c1.322,1.936,1.664,4.379,0.923,6.603l-25.14,75.415l75.416-25.138c0.774-0.258,1.575-0.385,2.371-0.385
		c1.493,0,2.971,0.445,4.232,1.308C147.644,441.778,190.508,455,235,455C356.309,455,455,356.309,455,235z M358.945,291.205
		c-0.02-0.014-0.036-0.03-0.056-0.044c-3.011,4.085-6.122,8.122-9.302,12.107c0.017,0.014,0.036,0.025,0.053,0.039
		c3.193,2.638,3.643,7.366,1.005,10.559c-42.727,51.71-95.873,93.159-111.144,104.631c-1.334,1.002-2.92,1.503-4.505,1.503
		s-3.17-0.501-4.505-1.503C202.175,397.223,60.914,286.099,60.914,187.372c0-53.14,43.232-96.372,96.373-96.372
		c30.894,0,59.693,14.865,77.712,39.468C253.018,105.865,281.817,91,312.711,91c53.141,0,96.373,43.232,96.373,96.372
		c0,30.376-13.353,64.704-39.687,102.028C367.011,292.784,362.333,293.593,358.945,291.205z"/>
	<path style="fill:#3E2C3A;" d="M401.17,68.83C356.784,24.444,297.771,0,235,0S113.216,24.444,68.83,68.83S0,172.229,0,235
		c0,46.271,13.391,90.899,38.764,129.316l-28.718,86.149c-0.898,2.695-0.197,5.666,1.812,7.675s4.979,2.71,7.676,1.812l86.15-28.716
		C144.101,456.609,188.729,470,235,470c62.771,0,121.784-24.444,166.17-68.83C445.556,356.785,470,297.771,470,235
		C470,172.229,445.556,113.216,401.17,68.83z M111.039,416.764c-1.262-0.862-2.739-1.308-4.232-1.308
		c-0.796,0-1.597,0.127-2.371,0.385L29.02,440.979l25.14-75.415c0.741-2.224,0.399-4.667-0.923-6.603
		C28.222,322.357,15,279.492,15,235c0-121.309,98.691-220,220-220s220,98.692,220,220c0,121.308-98.691,220-220,220
		C190.508,455,147.644,441.778,111.039,416.764z"/>
	<path style="fill:#D7B0CD;" d="M357.142,280.752c24.513-34.744,36.942-66.162,36.942-93.38c0-44.869-36.504-81.372-81.373-81.372
		c-29.528,0-56.792,16.091-71.152,41.995c-1.322,2.384-3.833,3.864-6.56,3.864s-5.237-1.479-6.56-3.864
		C214.079,122.091,186.815,106,157.287,106c-44.869,0-81.373,36.503-81.373,81.372c0,37.932,24.875,85.082,71.935,136.351
		c34.32,37.39,71.382,67.224,87.149,79.354c19.069-14.657,65.9-52.555,104.084-98.767c2.624-3.176,7.312-3.635,10.506-1.044
		c3.18-3.985,6.29-8.022,9.302-12.107C355.555,288.76,354.767,284.118,357.142,280.752z M312.712,146c-4.143,0-7.5-3.358-7.5-7.5
		s3.357-7.5,7.5-7.5c31.084,0,56.372,25.289,56.372,56.373c0,4.142-3.357,7.5-7.5,7.5s-7.5-3.358-7.5-7.5
		C354.084,164.56,335.524,146,312.712,146z"/>
	<path style="fill:#3E2C3A;" d="M312.711,91c-30.894,0-59.693,14.865-77.712,39.468C216.98,105.865,188.181,91,157.287,91
		c-53.141,0-96.373,43.232-96.373,96.372c0,98.727,141.261,209.851,169.578,231.125c1.335,1.002,2.92,1.503,4.505,1.503
		s3.171-0.501,4.505-1.503c15.271-11.472,68.417-52.92,111.144-104.631c2.638-3.193,2.188-7.921-1.005-10.559
		c-0.017-0.014-0.036-0.025-0.053-0.039c-3.193-2.591-7.882-2.133-10.506,1.044c-38.184,46.212-85.015,84.11-104.084,98.767
		c-15.768-12.131-52.829-41.964-87.149-79.354c-47.06-51.27-71.935-98.419-71.935-136.351c0-44.869,36.504-81.372,81.373-81.372
		c29.528,0,56.792,16.091,71.152,41.995c1.322,2.384,3.833,3.864,6.56,3.864s5.237-1.479,6.56-3.864
		C255.919,122.091,283.183,106,312.711,106c44.869,0,81.373,36.503,81.373,81.372c0,27.219-12.43,58.636-36.942,93.38
		c-2.375,3.365-1.587,8.008,1.748,10.408c0.02,0.014,0.036,0.03,0.056,0.044c3.388,2.388,8.065,1.579,10.452-1.805
		c26.334-37.324,39.687-71.651,39.687-102.028C409.084,134.232,365.852,91,312.711,91z"/>
	<path style="fill:#FFFFFF;" d="M361.584,194.873c4.143,0,7.5-3.358,7.5-7.5c0-31.084-25.288-56.373-56.372-56.373
		c-4.143,0-7.5,3.358-7.5,7.5s3.357,7.5,7.5,7.5c22.812,0,41.372,18.56,41.372,41.373
		C354.084,191.515,357.441,194.873,361.584,194.873z"/>
</g>
<g>
</g>
<g>
</g>
<g>
</g>
<g>
</g>
<g>
</g>
<g>
</g>
<g>
</g>
<g>
</g>
<g>
</g>
<g>
</g>
<g>
</g>
<g>
</g>
<g>
</g>
<g>
</g>
<g>
</g>
</svg>
