<?xml version="1.0" encoding="iso-8859-1"?>
<!-- Generator: Adobe Illustrator 19.1.0, SVG Export Plug-In . SVG Version: 6.00 Build 0)  -->
<svg version="1.1" id="Capa_1" xmlns="http://www.w3.org/2000/svg" xmlns:xlink="http://www.w3.org/1999/xlink" x="0px" y="0px"
	 viewBox="0 0 470 470" style="enable-background:new 0 0 470 470;" xml:space="preserve">
<g>
	<path style="fill:#D5E6DA;" d="M40.65,246.972c2.116-3.562,6.718-4.73,10.279-2.615l138.051,82.063
		c-1.706-41.44-20.014-76.038-50.359-94.076c-14.883-8.848-31.651-13.333-49.837-13.333c-21.301,0-43.573,6.262-64.65,18.143
		C24.135,237.159,40.649,246.975,40.65,246.972z"/>
	<path style="fill:#98AE9F;" d="M74.612,340.025c14.882,8.848,31.649,13.333,49.835,13.333c18.698,0,38.143-4.827,56.872-14.042
		L43.265,257.251c-3.56-2.117-4.73-6.716-2.616-10.276l-16.514-9.816C23.451,282.47,42.143,320.725,74.612,340.025z"/>
	<path style="fill:#98AE9F;" d="M395.387,340.025c32.469-19.3,51.161-57.555,50.478-102.866l-16.51,9.814
		c2.114,3.56,0.943,8.16-2.616,10.277L288.68,339.316c18.729,9.214,38.175,14.042,56.873,14.042
		C363.737,353.358,380.504,348.873,395.387,340.025z"/>
	<path style="fill:#D5E6DA;" d="M445.865,237.154c-21.077-11.881-43.35-18.143-64.65-18.143c-18.186,0-34.953,4.485-49.837,13.333
		c-30.346,18.038-48.654,52.636-50.36,94.076l138.056-82.065c3.56-2.114,8.163-0.945,10.279,2.615
		C429.354,246.973,445.865,237.159,445.865,237.154z"/>
	<path style="fill:#3E2C3A;" d="M460.739,232.464c-0.103-2.53-1.474-4.837-3.647-6.136c-24.435-14.601-50.673-22.317-75.877-22.317
		c-20.921,0-40.268,5.194-57.501,15.438c-37.159,22.088-58.565,65.212-57.807,115.953L242.5,349.317V270H255
		c4.143,0,7.5-3.357,7.5-7.5s-3.357-7.5-7.5-7.5h-12.5v-29.906c23.923-1.618,46.286-11.033,63.624-26.92
		c20.233-18.539,31.376-44.318,31.376-72.59V27.75c0-4.143-3.357-7.5-7.5-7.5c-13.214,0-25.969,1.976-37.962,5.753
		c-15.913-13.29-35.086-22.213-55.723-25.887c-0.869-0.154-1.76-0.154-2.629,0c-20.627,3.673-39.792,12.589-55.701,25.869
		C165.959,22.21,153.203,20.25,140,20.25c-4.142,0-7.5,3.357-7.5,7.5v97.833c0,28.267,11.169,54.048,31.451,72.595
		c17.336,15.854,39.669,25.26,63.549,26.905v124.233l-23.408-13.914c0.759-50.742-20.648-93.865-57.806-115.953
		c-17.234-10.244-36.581-15.438-57.501-15.438c-25.205,0-51.442,7.717-75.877,22.317c-2.173,1.299-3.544,3.605-3.646,6.136
		C7.129,285.15,28.694,330.18,66.947,352.919c17.234,10.244,36.58,15.438,57.5,15.438c23.868,0,48.661-6.932,71.975-20.065
		l31.078,18.474v54.9H215c-4.142,0-7.5,3.357-7.5,7.5s3.358,7.5,7.5,7.5h12.5V462.5c0,4.143,3.358,7.5,7.5,7.5
		c4.143,0,7.5-3.357,7.5-7.5v-59.167H255c4.143,0,7.5-3.357,7.5-7.5s-3.357-7.5-7.5-7.5h-12.5v-21.566l31.077-18.473
		c23.314,13.133,48.106,20.065,71.974,20.065c20.92,0,40.268-5.195,57.5-15.438C441.305,330.18,462.87,285.151,460.739,232.464z
		 M24.135,237.159c21.077-11.886,43.349-18.148,64.65-18.148c18.186,0,34.954,4.485,49.837,13.333
		c30.346,18.038,48.653,52.636,50.359,94.076L50.93,244.357c-3.561-2.115-8.163-0.946-10.279,2.615
		c-2.116,3.563-0.945,8.163,2.614,10.279l138.054,82.064c-18.729,9.215-38.175,14.042-56.872,14.042
		c-18.186,0-34.953-4.485-49.835-13.333C42.143,320.725,23.451,282.47,24.135,237.159z M235.014,64.814
		c-5.975-7.349-12.77-13.979-20.293-19.764c-6.414-4.932-13.272-9.146-20.483-12.639C206.353,23.86,220.225,17.948,235,15.125
		c14.793,2.826,28.682,8.749,40.808,17.319C260.166,40.013,246.285,50.942,235.014,64.814z M147.5,35.486
		c33.508,2.114,62.203,18.402,80.615,44.867c0.365,0.846,0.888,1.63,1.561,2.306c5.5,8.349,10.004,17.656,13.353,27.805
		c1.273,3.86,5.378,5.986,9.253,4.833c0.073-0.022,0.146-0.036,0.219-0.06c3.934-1.297,6.07-5.538,4.772-9.472
		c-3.316-10.054-7.743-19.512-13.172-28.22c18.785-24.983,46.828-39.997,78.399-42.052v90.091c0,47.356-35.416,77.7-73.586,83.674
		c9.792-18.8,15.086-40.174,15.086-61.548c0-1.65-0.031-3.328-0.092-4.987c-0.153-4.14-3.616-7.352-7.771-7.22
		c-0.083,0.003-0.164,0.016-0.246,0.021c-4.02,0.279-7.123,3.693-6.974,7.749c0.055,1.477,0.082,2.97,0.082,4.437
		c0,22.061-6.347,44.108-17.932,62.543c-41.758-1.893-83.568-33.257-83.568-84.669V35.486z M426.738,257.25
		c3.56-2.117,4.731-6.717,2.616-10.277c-2.117-3.563-6.721-4.732-10.281-2.618L281.017,326.42
		c1.706-41.44,20.014-76.038,50.36-94.076c14.884-8.848,31.651-13.333,49.837-13.333c21.301,0,43.573,6.262,64.65,18.143
		c0.683,45.316-18.009,83.571-50.478,102.871c-14.883,8.848-31.65,13.333-49.835,13.333c-18.698,0-38.144-4.828-56.873-14.042
		L426.738,257.25z"/>
	<path style="fill:#D7B0CD;" d="M194.238,32.412c7.211,3.492,14.069,7.707,20.483,12.639c7.523,5.784,14.318,12.415,20.293,19.764
		c11.271-13.872,25.151-24.801,40.794-32.369c-12.126-8.57-26.015-14.493-40.808-17.319
		C220.225,17.948,206.353,23.86,194.238,32.412z"/>
	<path style="fill:#C981A6;" d="M256.137,135.502c4.154-0.132,7.617,3.08,7.771,7.22c0.061,1.659,0.092,3.337,0.092,4.987
		c0,21.373-5.294,42.748-15.086,61.548c38.17-5.973,73.586-36.317,73.586-83.674V35.493c-31.571,2.055-59.614,17.068-78.399,42.052
		c5.429,8.708,9.855,18.166,13.172,28.22c1.298,3.934-0.839,8.175-4.772,9.472c-0.073,0.024-0.146,0.039-0.219,0.06
		c1.746,6.59,2.947,13.358,3.61,20.228C255.974,135.518,256.054,135.505,256.137,135.502z"/>
	<path style="fill:#BC6190;" d="M231.067,210.253C242.652,191.818,249,169.771,249,147.709c0-1.467-0.027-2.96-0.082-4.437
		c-0.149-4.056,2.954-7.47,6.974-7.749c-0.663-6.87-1.865-13.638-3.61-20.228c-3.876,1.154-7.98-0.972-9.253-4.833
		c-3.349-10.148-7.853-19.456-13.353-27.805c-0.673-0.676-1.196-1.46-1.561-2.306C209.703,53.888,181.007,37.6,147.5,35.486v90.098
		C147.5,176.996,189.309,208.359,231.067,210.253z"/>
</g>
<g>
</g>
<g>
</g>
<g>
</g>
<g>
</g>
<g>
</g>
<g>
</g>
<g>
</g>
<g>
</g>
<g>
</g>
<g>
</g>
<g>
</g>
<g>
</g>
<g>
</g>
<g>
</g>
<g>
</g>
</svg>
