<?xml version="1.0" encoding="iso-8859-1"?>
<!-- Generator: Adobe Illustrator 19.1.0, SVG Export Plug-In . SVG Version: 6.00 Build 0)  -->
<svg version="1.1" id="Capa_1" xmlns="http://www.w3.org/2000/svg" xmlns:xlink="http://www.w3.org/1999/xlink" x="0px" y="0px"
	 viewBox="0 0 470.001 470.001" style="enable-background:new 0 0 470.001 470.001;" xml:space="preserve">
<g>
	<polygon style="fill:#E8B9AC;" points="232.834,415.945 224.838,455.001 275.222,455.001 267.227,415.945 	"/>
	<path style="fill:#D7B0CD;" d="M250.03,30.276c-85.652,0-155.334,69.683-155.334,155.334s69.683,155.334,155.334,155.334
		c85.652,0,155.335-69.683,155.335-155.334S335.682,30.276,250.03,30.276z M354.202,245.611c0,4.142-3.357,7.5-7.5,7.5H153.358
		c-4.142,0-7.5-3.358-7.5-7.5v-40c0-4.142,3.358-7.5,7.5-7.5h193.343c4.143,0,7.5,3.358,7.5,7.5V245.611z M354.202,165.611
		c0,4.142-3.357,7.5-7.5,7.5H153.358c-4.142,0-7.5-3.358-7.5-7.5v-40c0-4.142,3.358-7.5,7.5-7.5h193.343c4.143,0,7.5,3.358,7.5,7.5
		V165.611z"/>
	<rect x="160.858" y="213.111" style="fill:#BC6190;" width="178.343" height="25"/>
	<rect x="160.858" y="133.111" style="fill:#BC6190;" width="178.343" height="25"/>
	<path style="fill:#3E2C3A;" d="M346.702,118.111H153.358c-4.142,0-7.5,3.358-7.5,7.5v40c0,4.142,3.358,7.5,7.5,7.5h193.343
		c4.143,0,7.5-3.358,7.5-7.5v-40C354.202,121.469,350.844,118.111,346.702,118.111z M339.202,158.111H160.858v-25h178.343V158.111z"
		/>
	<path style="fill:#3E2C3A;" d="M346.702,198.111H153.358c-4.142,0-7.5,3.358-7.5,7.5v40c0,4.142,3.358,7.5,7.5,7.5h193.343
		c4.143,0,7.5-3.358,7.5-7.5v-40C354.202,201.469,350.844,198.111,346.702,198.111z M339.202,238.111H160.858v-25h178.343V238.111z"
		/>
	<path style="fill:#3E2C3A;" d="M250.03,15.276c-93.923,0-170.334,76.412-170.334,170.334s76.412,170.334,170.334,170.334
		s170.335-76.412,170.335-170.334S343.953,15.276,250.03,15.276z M250.03,340.945c-85.652,0-155.334-69.683-155.334-155.334
		S164.378,30.276,250.03,30.276c85.652,0,155.335,69.683,155.335,155.334S335.682,340.945,250.03,340.945z"/>
	<path style="fill:#3E2C3A;" d="M326.675,370.649c3.827-1.585,5.645-5.973,4.059-9.799c-1.585-3.827-5.972-5.646-9.799-4.059
		c-23.113,9.574-47.076,14.106-70.664,14.106c-72.741-0.001-141.898-43.105-171.421-114.38
		C39.752,162.127,84.735,53.528,179.124,14.431c3.827-1.585,5.644-5.973,4.059-9.799s-5.972-5.643-9.799-4.059
		C123.958,21.045,85.464,59.54,64.991,108.965c-20.473,49.426-20.473,103.865,0,153.291
		c30.865,74.513,101.783,120.539,177.539,123.486v15.203h-15.815c-3.562,0-6.633,2.506-7.348,5.996l-9.84,48.061h-33.272
		c-4.142,0-7.5,3.358-7.5,7.5s3.358,7.5,7.5,7.5h39.371c0.063,0,68.745,0,68.745,0c0.023,0,0.045,0,0.068,0h39.366
		c4.143,0,7.5-3.358,7.5-7.5s-3.357-7.5-7.5-7.5h-33.272l-9.838-48.06c-0.715-3.49-3.785-5.996-7.348-5.996H257.53V385.75
		C280.674,384.905,304.058,380.017,326.675,370.649z M224.838,455.001l7.996-39.056h34.393l7.995,39.056H224.838z"/>
</g>
<g>
</g>
<g>
</g>
<g>
</g>
<g>
</g>
<g>
</g>
<g>
</g>
<g>
</g>
<g>
</g>
<g>
</g>
<g>
</g>
<g>
</g>
<g>
</g>
<g>
</g>
<g>
</g>
<g>
</g>
</svg>
