<?xml version="1.0" encoding="iso-8859-1"?>
<!-- Generator: Adobe Illustrator 19.0.0, SVG Export Plug-In . SVG Version: 6.00 Build 0)  -->
<svg version="1.1" id="Capa_1" xmlns="http://www.w3.org/2000/svg" xmlns:xlink="http://www.w3.org/1999/xlink" x="0px" y="0px"
	 viewBox="0 0 469.973 469.973" style="enable-background:new 0 0 469.973 469.973;" xml:space="preserve">
<g>
	<path style="fill:#66CD19;" d="M229.886,126.189c18.391,7.579,35.137,18.355,49.544,31.638V80.369c0-4.142,3.357-7.5,7.5-7.5
		s7.5,3.358,7.5,7.5v88.61c6.827-12.346,15.422-23.871,25.675-34.125c6.77-6.77,14.043-12.813,21.718-18.112
		c-8.364-31.696-27.791-59.537-54.893-77.313C257.164,58.953,236.645,90.611,229.886,126.189z"/>
	<path style="fill:#A3E175;" d="M452.34,107.945c-8.5-1.767-17.231-2.661-26.018-2.661c-35.747,0-69.702,14.269-95.61,40.177
		c-11.623,11.623-20.881,25.047-27.574,39.472c8.72,12.447,15.782,26.134,20.866,40.741l94.084-94.084
		c2.93-2.929,7.678-2.929,10.607,0c2.929,2.929,2.929,7.678,0,10.606l-99.908,99.908c2.058,8.739,3.419,17.743,4.036,26.947
		c30.688-3.145,59.404-16.884,82-39.479C447.146,197.25,461.294,151.035,452.34,107.945z"/>
	<path style="fill:#3D2A20;" d="M465.889,99.884c-0.667-2.707-2.78-4.82-5.487-5.487c-11.069-2.729-22.535-4.112-34.079-4.112
		c-25.138,0-49.461,6.337-71.218,18.259c-10.388-35.069-33.109-65.542-64.295-84.394c-2.387-1.442-5.375-1.442-7.76,0
		c-34.843,21.062-59.107,56.632-67.422,96.908c-15.505-4.783-31.967-7.364-49.021-7.364C74.739,113.693,0,188.432,0,280.299
		c0,91.867,74.739,166.606,166.606,166.606c90.6,0,164.536-72.694,166.557-162.819c34.562-3.255,66.912-18.554,92.267-43.908
		C462.563,203.046,478.065,149.288,465.889,99.884z M318.212,280.299c0,83.596-68.01,151.606-151.605,151.606S15,363.895,15,280.299
		c0-83.596,68.011-151.606,151.606-151.606S318.212,196.703,318.212,280.299z M341.823,116.743
		c-7.675,5.299-14.948,11.342-21.718,18.112c-10.253,10.253-18.847,21.778-25.675,34.125v-88.61c0-4.142-3.357-7.5-7.5-7.5
		s-7.5,3.358-7.5,7.5v77.458c-14.407-13.282-31.153-24.058-49.544-31.638c6.76-35.578,27.278-67.236,57.044-86.759
		C314.032,57.206,333.458,85.047,341.823,116.743z M332.824,269.052c-0.617-9.205-1.978-18.208-4.036-26.947l99.908-99.908
		c2.929-2.929,2.929-7.678,0-10.606c-2.93-2.929-7.678-2.929-10.607,0l-94.084,94.084c-5.084-14.607-12.146-28.294-20.866-40.741
		c6.694-14.424,15.952-27.849,27.574-39.472c25.908-25.908,59.863-40.177,95.61-40.177c8.786,0,17.518,0.894,26.018,2.661
		c8.954,43.089-5.194,89.305-37.517,121.627C392.228,252.168,363.511,265.907,332.824,269.052z"/>
	<path style="fill:#855538;" d="M166.606,128.693C83.011,128.693,15,196.703,15,280.299c0,83.596,68.011,151.606,151.606,151.606
		s151.605-68.01,151.605-151.606C318.212,196.703,250.202,128.693,166.606,128.693z M84.536,173.338
		c0.741-0.022,1.511-0.034,2.308-0.034c11.428,0,17.442,2.433,22.75,4.579c4.623,1.87,8.616,3.485,17.126,3.485
		s12.502-1.615,17.125-3.485c5.308-2.146,11.322-4.579,22.751-4.579s17.443,2.433,22.751,4.579c4.623,1.87,8.616,3.485,17.126,3.485
		s12.503-1.615,17.126-3.485c5.308-2.146,11.322-4.579,22.751-4.579c0.808,0,1.587,0.012,2.338,0.035
		c4.141,0.128,7.393,3.589,7.264,7.729c-0.128,4.14-3.538,7.393-7.729,7.264c-0.603-0.019-1.226-0.028-1.873-0.028
		c-8.51,0-12.503,1.615-17.126,3.485c-5.308,2.146-11.322,4.579-22.751,4.579s-17.443-2.433-22.751-4.579
		c-4.623-1.87-8.616-3.485-17.126-3.485s-12.503,1.615-17.126,3.485c-5.308,2.146-11.322,4.579-22.75,4.579
		c-11.429,0-17.443-2.433-22.751-4.579c-4.623-1.87-8.615-3.485-17.125-3.485c-0.643,0-1.262,0.01-1.86,0.027
		c-4.138,0.139-7.597-3.133-7.721-7.272C77.14,176.918,80.396,173.461,84.536,173.338z M33.364,251.443
		c0.427-4.119,4.129-7.116,8.231-6.688c1.64,0.169,3.448,0.255,5.378,0.255c8.509,0,12.501-1.615,17.123-3.485
		c5.307-2.146,11.32-4.579,22.747-4.579c11.428,0,17.442,2.433,22.75,4.579c4.623,1.87,8.616,3.485,17.126,3.485
		s12.502-1.615,17.125-3.485c5.308-2.146,11.322-4.579,22.751-4.579s17.443,2.433,22.751,4.579c4.623,1.87,8.616,3.485,17.126,3.485
		s12.503-1.615,17.126-3.485c5.308-2.146,11.322-4.579,22.751-4.579c11.43,0,17.445,2.433,22.753,4.579
		c4.624,1.87,8.618,3.485,17.129,3.485c1.931,0,3.742-0.086,5.384-0.256c4.132-0.434,7.807,2.566,8.233,6.687
		c0.427,4.12-2.566,7.806-6.687,8.233c-2.185,0.227-4.451,0.336-6.931,0.336c-11.429,0-17.444-2.433-22.752-4.579
		c-4.624-1.87-8.618-3.485-17.13-3.485c-8.51,0-12.503,1.615-17.126,3.485c-5.308,2.146-11.322,4.579-22.751,4.579
		s-17.443-2.433-22.751-4.579c-4.623-1.87-8.616-3.485-17.126-3.485s-12.503,1.615-17.126,3.485
		c-5.308,2.146-11.322,4.579-22.75,4.579c-11.429,0-17.443-2.433-22.751-4.579c-4.623-1.87-8.615-3.485-17.125-3.485
		c-8.508,0-12.5,1.615-17.122,3.485c-5.307,2.146-11.32,4.579-22.748,4.579c-2.478,0-4.741-0.11-6.921-0.335
		C35.933,259.248,32.938,255.563,33.364,251.443z M263.797,374.045c-0.794,4.064-4.726,6.713-8.799,5.923
		c-2.537-0.496-5.366-0.737-8.648-0.737c-8.51,0-12.503,1.615-17.126,3.485c-5.308,2.146-11.322,4.579-22.751,4.579
		s-17.443-2.433-22.751-4.579c-4.623-1.87-8.616-3.485-17.126-3.485s-12.503,1.615-17.126,3.485
		c-5.308,2.146-11.322,4.579-22.75,4.579c-11.429,0-17.443-2.433-22.751-4.579c-4.623-1.87-8.615-3.485-17.125-3.485
		c-3.276,0-6.101,0.24-8.636,0.735c-4.063,0.797-8.004-1.86-8.797-5.925c-0.793-4.065,1.86-8.004,5.926-8.797
		c3.491-0.681,7.256-1.012,11.507-1.012c11.428,0,17.442,2.433,22.75,4.579c4.623,1.87,8.616,3.485,17.126,3.485
		s12.502-1.615,17.125-3.485c5.308-2.146,11.322-4.579,22.751-4.579s17.443,2.433,22.751,4.579c4.623,1.87,8.616,3.485,17.126,3.485
		s12.503-1.615,17.126-3.485c5.308-2.146,11.322-4.579,22.751-4.579c4.259,0,8.029,0.332,11.525,1.015
		C261.94,366.041,264.592,369.98,263.797,374.045z M290.93,323.505c-1.494,0.098-3.074,0.148-4.698,0.148
		c-11.429,0-17.444-2.433-22.752-4.579c-4.624-1.87-8.618-3.485-17.13-3.485c-8.51,0-12.503,1.615-17.126,3.485
		c-5.308,2.146-11.322,4.579-22.751,4.579s-17.443-2.433-22.751-4.579c-4.623-1.87-8.616-3.485-17.126-3.485
		s-12.503,1.615-17.126,3.485c-5.308,2.146-11.322,4.579-22.75,4.579c-11.429,0-17.443-2.433-22.751-4.579
		c-4.623-1.87-8.615-3.485-17.125-3.485c-8.508,0-12.5,1.615-17.122,3.485c-5.307,2.146-11.32,4.579-22.748,4.579
		c-1.619,0-3.196-0.05-4.688-0.147c-4.134-0.271-7.265-3.841-6.994-7.975c0.271-4.134,3.872-7.267,7.975-6.993
		c1.167,0.077,2.414,0.115,3.707,0.115c8.509,0,12.501-1.615,17.123-3.485c5.307-2.146,11.32-4.579,22.747-4.579
		c11.428,0,17.442,2.433,22.75,4.579c4.623,1.87,8.616,3.485,17.126,3.485s12.502-1.615,17.125-3.485
		c5.308-2.146,11.322-4.579,22.751-4.579s17.443,2.433,22.751,4.579c4.623,1.87,8.616,3.485,17.126,3.485s12.503-1.615,17.126-3.485
		c5.308-2.146,11.322-4.579,22.751-4.579c11.43,0,17.445,2.433,22.753,4.579c4.624,1.87,8.618,3.485,17.129,3.485
		c1.297,0,2.547-0.039,3.714-0.116c4.11-0.259,7.704,2.858,7.976,6.992C298.193,319.662,295.063,323.233,290.93,323.505z"/>
	<path style="fill:#3D2A20;" d="M257.875,365.246c-3.496-0.683-7.267-1.015-11.525-1.015c-11.429,0-17.443,2.433-22.751,4.579
		c-4.623,1.87-8.616,3.485-17.126,3.485s-12.503-1.615-17.126-3.485c-5.308-2.146-11.322-4.579-22.751-4.579
		s-17.443,2.433-22.751,4.579c-4.623,1.87-8.615,3.485-17.125,3.485s-12.503-1.615-17.126-3.485
		c-5.308-2.146-11.322-4.579-22.75-4.579c-4.251,0-8.016,0.331-11.507,1.012c-4.065,0.793-6.719,4.732-5.926,8.797
		c0.793,4.065,4.734,6.723,8.797,5.925c2.535-0.495,5.359-0.735,8.636-0.735c8.51,0,12.502,1.615,17.125,3.485
		c5.308,2.146,11.322,4.579,22.751,4.579c11.428,0,17.442-2.433,22.75-4.579c4.623-1.87,8.616-3.485,17.126-3.485
		s12.503,1.615,17.126,3.485c5.308,2.146,11.322,4.579,22.751,4.579s17.443-2.433,22.751-4.579c4.623-1.87,8.616-3.485,17.126-3.485
		c3.282,0,6.111,0.241,8.648,0.737c4.073,0.791,8.005-1.858,8.799-5.923C264.592,369.98,261.94,366.041,257.875,365.246z"/>
	<path style="fill:#3D2A20;" d="M289.945,308.537c-1.167,0.077-2.417,0.116-3.714,0.116c-8.511,0-12.505-1.615-17.129-3.485
		c-5.308-2.146-11.323-4.579-22.753-4.579c-11.429,0-17.443,2.433-22.751,4.579c-4.623,1.87-8.616,3.485-17.126,3.485
		s-12.503-1.615-17.126-3.485c-5.308-2.146-11.322-4.579-22.751-4.579s-17.443,2.433-22.751,4.579
		c-4.623,1.87-8.615,3.485-17.125,3.485s-12.503-1.615-17.126-3.485c-5.308-2.146-11.322-4.579-22.75-4.579
		c-11.427,0-17.44,2.433-22.747,4.579c-4.622,1.87-8.614,3.485-17.123,3.485c-1.293,0-2.54-0.039-3.707-0.115
		c-4.103-0.273-7.703,2.859-7.975,6.993c-0.271,4.133,2.86,7.704,6.994,7.975c1.491,0.098,3.068,0.147,4.688,0.147
		c11.428,0,17.441-2.433,22.748-4.579c4.622-1.87,8.614-3.485,17.122-3.485c8.51,0,12.502,1.615,17.125,3.485
		c5.308,2.146,11.322,4.579,22.751,4.579c11.428,0,17.442-2.433,22.75-4.579c4.623-1.87,8.616-3.485,17.126-3.485
		s12.503,1.615,17.126,3.485c5.308,2.146,11.322,4.579,22.751,4.579s17.443-2.433,22.751-4.579c4.623-1.87,8.616-3.485,17.126-3.485
		c8.512,0,12.506,1.615,17.13,3.485c5.308,2.146,11.323,4.579,22.752,4.579c1.624,0,3.204-0.05,4.698-0.148
		c4.133-0.272,7.264-3.843,6.991-7.976C297.649,311.395,294.056,308.278,289.945,308.537z"/>
	<path style="fill:#3D2A20;" d="M84.983,188.331c0.599-0.018,1.218-0.027,1.86-0.027c8.51,0,12.502,1.615,17.125,3.485
		c5.308,2.146,11.322,4.579,22.751,4.579c11.428,0,17.442-2.433,22.75-4.579c4.623-1.87,8.616-3.485,17.126-3.485
		s12.503,1.615,17.126,3.485c5.308,2.146,11.322,4.579,22.751,4.579s17.443-2.433,22.751-4.579c4.623-1.87,8.616-3.485,17.126-3.485
		c0.647,0,1.271,0.009,1.873,0.028c4.19,0.129,7.601-3.124,7.729-7.264c0.129-4.14-3.123-7.601-7.264-7.729
		c-0.751-0.023-1.53-0.035-2.338-0.035c-11.429,0-17.443,2.433-22.751,4.579c-4.623,1.87-8.616,3.485-17.126,3.485
		s-12.503-1.615-17.126-3.485c-5.308-2.146-11.322-4.579-22.751-4.579s-17.443,2.433-22.751,4.579
		c-4.623,1.87-8.615,3.485-17.125,3.485s-12.503-1.615-17.126-3.485c-5.308-2.146-11.322-4.579-22.75-4.579
		c-0.797,0-1.566,0.012-2.308,0.034c-4.141,0.124-7.396,3.581-7.273,7.721C77.387,185.198,80.846,188.47,84.983,188.331z"/>
	<path style="fill:#3D2A20;" d="M40.053,259.675c2.18,0.226,4.443,0.335,6.921,0.335c11.428,0,17.441-2.433,22.748-4.579
		c4.622-1.87,8.614-3.485,17.122-3.485c8.51,0,12.502,1.615,17.125,3.485c5.308,2.146,11.322,4.579,22.751,4.579
		c11.428,0,17.442-2.433,22.75-4.579c4.623-1.87,8.616-3.485,17.126-3.485s12.503,1.615,17.126,3.485
		c5.308,2.146,11.322,4.579,22.751,4.579s17.443-2.433,22.751-4.579c4.623-1.87,8.616-3.485,17.126-3.485
		c8.512,0,12.506,1.615,17.13,3.485c5.308,2.146,11.323,4.579,22.752,4.579c2.479,0,4.746-0.11,6.931-0.336
		c4.12-0.427,7.113-4.113,6.687-8.233c-0.427-4.121-4.102-7.121-8.233-6.687c-1.642,0.17-3.453,0.256-5.384,0.256
		c-8.511,0-12.505-1.615-17.129-3.485c-5.308-2.146-11.323-4.579-22.753-4.579c-11.429,0-17.443,2.433-22.751,4.579
		c-4.623,1.87-8.616,3.485-17.126,3.485s-12.503-1.615-17.126-3.485c-5.308-2.146-11.322-4.579-22.751-4.579
		s-17.443,2.433-22.751,4.579c-4.623,1.87-8.615,3.485-17.125,3.485s-12.503-1.615-17.126-3.485
		c-5.308-2.146-11.322-4.579-22.75-4.579c-11.427,0-17.44,2.433-22.747,4.579c-4.622,1.87-8.614,3.485-17.123,3.485
		c-1.93,0-3.738-0.086-5.378-0.255c-4.103-0.428-7.805,2.569-8.231,6.688C32.938,255.563,35.933,259.248,40.053,259.675z"/>
</g>
<g>
</g>
<g>
</g>
<g>
</g>
<g>
</g>
<g>
</g>
<g>
</g>
<g>
</g>
<g>
</g>
<g>
</g>
<g>
</g>
<g>
</g>
<g>
</g>
<g>
</g>
<g>
</g>
<g>
</g>
</svg>
