<?xml version="1.0" encoding="iso-8859-1"?>
<!-- Generator: Adobe Illustrator 19.0.0, SVG Export Plug-In . SVG Version: 6.00 Build 0)  -->
<svg version="1.1" id="Capa_1" xmlns="http://www.w3.org/2000/svg" xmlns:xlink="http://www.w3.org/1999/xlink" x="0px" y="0px"
	 viewBox="0 0 440.305 440.305" style="enable-background:new 0 0 440.305 440.305;" xml:space="preserve">
<g>
	<path style="fill:#460929;" d="M314.366,205.994c0-16.124-7.342-31.051-19.843-40.899c0.14-1.222,0.219-2.461,0.219-3.719
		c0-17.92-14.58-32.5-32.5-32.5c-7.948,0-15.62,2.94-21.529,8.16h-41.121c-5.91-5.22-13.581-8.16-21.529-8.16
		c-17.92,0-32.5,14.58-32.5,32.5c0,1.256,0.079,2.493,0.218,3.713c-12.484,9.856-19.842,24.868-19.842,40.906
		c0,23.179,15.214,42.864,36.177,49.616c-11.473,13.559-17.845,30.711-17.845,48.873v128.322c0,4.142,3.358,7.5,7.5,7.5h136.765
		c4.142,0,7.5-3.358,7.5-7.5V304.483c0-18.161-6.373-35.313-17.847-48.873C299.152,248.858,314.366,229.173,314.366,205.994z
		 M281.035,425.305H159.271V304.483c0-17.982,7.791-34.741,21.46-46.366h78.841c13.673,11.625,21.463,28.383,21.463,46.366V425.305z
		 M178.009,143.878c-4.586,4.429-7.446,10.634-7.446,17.497v15.787c-5.902-2.816-10-8.824-10-15.787
		C160.563,151.744,168.384,143.908,178.009,143.878z M279.742,161.375c0,6.963-4.098,12.972-10,15.787v-15.787
		c0-6.864-2.86-13.068-7.446-17.497C271.921,143.908,279.742,151.744,279.742,161.375z M243.766,152.035h1.636
		c5.15,0,9.34,4.19,9.34,9.34v2.71h-69.18v-2.71c0-5.15,4.19-9.34,9.34-9.34h1.636H243.766z M185.563,243.117v-64.032h69.18v64.032
		H185.563z M140.939,205.994c0-9.795,3.86-19.051,10.566-25.92c4.502,6.376,11.235,11.063,19.057,12.918v49.361
		C153.676,238.876,140.939,223.895,140.939,205.994z M269.742,242.353v-49.361c7.824-1.856,14.559-6.545,19.061-12.924
		c6.711,6.855,10.562,16.077,10.562,25.926C299.366,223.895,286.629,238.876,269.742,242.353z"/>
	<path style="fill:#39C8C6;" d="M269.742,161.375v15.787c5.902-2.816,10-8.824,10-15.787c0-9.631-7.822-17.468-17.446-17.497
		C266.882,148.307,269.742,154.512,269.742,161.375z"/>
	<path style="fill:#39C8C6;" d="M170.563,177.163v-15.787c0-6.864,2.86-13.068,7.446-17.497c-9.624,0.03-17.446,7.866-17.446,17.497
		C160.563,168.338,164.661,174.347,170.563,177.163z"/>
	<path style="fill:#FFFFFF;" d="M220.145,15c-33.566,0-60.874,27.316-60.874,60.892v42.973h33.693
		c-14.226-9.03-23.694-24.912-23.694-42.973c0-5.593,0.916-11.116,2.722-16.417C179.019,38.854,198.37,25,220.145,25
		c21.782,0,41.138,13.851,48.166,34.467c1.809,5.306,2.725,10.83,2.725,16.425c0,18.061-9.471,33.943-23.702,42.973h33.702V75.892
		C281.035,42.316,253.72,15,220.145,15z"/>
	<path style="fill:#460929;" d="M151.771,126.365c4.142,0,7.5-3.358,7.5-7.5V75.892c0-33.576,27.308-60.892,60.874-60.892
		c33.575,0,60.891,27.316,60.891,60.892v42.973c0,4.142,3.358,7.5,7.5,7.5s7.5-3.358,7.5-7.5V75.892
		C296.035,34.045,261.991,0,220.145,0c-41.837,0-75.874,34.045-75.874,75.892v42.973
		C144.271,123.007,147.629,126.365,151.771,126.365z"/>
	<path style="fill:#F7D0BC;" d="M185.563,161.375v2.71h69.18v-2.71c0-5.15-4.19-9.34-9.34-9.34h-1.636h-47.228h-1.636
		C189.753,152.035,185.563,156.225,185.563,161.375z"/>
	<rect x="185.563" y="179.085" style="fill:#76DEDD;" width="69.18" height="64.032"/>
	<path style="fill:#F7D0BC;" d="M220.145,111.766c19.79,0,35.891-16.093,35.891-35.875c0-2.188-0.206-4.36-0.601-6.5h-70.564
		c-0.395,2.14-0.601,4.312-0.601,6.5C184.27,95.673,200.363,111.766,220.145,111.766z"/>
	<path style="fill:#460929;" d="M271.035,75.892c0-5.594-0.916-11.119-2.723-16.42C261.283,38.851,241.927,25,220.145,25
		c-21.775,0-41.126,13.853-48.152,34.472c-1.806,5.303-2.722,10.826-2.722,16.419c0,18.061,9.468,33.943,23.694,42.973
		c7.87,4.995,17.189,7.902,27.181,7.902c9.994,0,19.317-2.907,27.189-7.902C261.564,109.834,271.035,93.953,271.035,75.892z
		 M220.145,40c11.528,0,22.093,5.501,28.742,14.391h-57.47C198.064,45.502,208.624,40,220.145,40z M184.871,69.392h70.564
		c0.395,2.14,0.601,4.312,0.601,6.5c0,19.781-16.101,35.875-35.891,35.875c-19.781,0-35.875-16.093-35.875-35.875
		C184.27,73.704,184.476,71.531,184.871,69.392z"/>
	<path style="fill:#AB899B;" d="M220.145,40c-11.521,0-22.081,5.501-28.728,14.391h57.47C242.237,45.502,231.672,40,220.145,40z"/>
	<path style="fill:#39C8C6;" d="M259.572,258.117h-78.841c-13.67,11.625-21.46,28.384-21.46,46.366v120.822h121.765V304.483
		C281.035,286.5,273.245,269.742,259.572,258.117z"/>
</g>
<g>
</g>
<g>
</g>
<g>
</g>
<g>
</g>
<g>
</g>
<g>
</g>
<g>
</g>
<g>
</g>
<g>
</g>
<g>
</g>
<g>
</g>
<g>
</g>
<g>
</g>
<g>
</g>
<g>
</g>
</svg>
