<?xml version="1.0" encoding="iso-8859-1"?>
<!-- Generator: Adobe Illustrator 19.1.0, SVG Export Plug-In . SVG Version: 6.00 Build 0)  -->
<svg version="1.1" id="Capa_1" xmlns="http://www.w3.org/2000/svg" xmlns:xlink="http://www.w3.org/1999/xlink" x="0px" y="0px"
	 viewBox="0 0 437.5 437.5" style="enable-background:new 0 0 437.5 437.5;" xml:space="preserve">
<g>
	<path d="M388.375,386.77c0,4.15-3.36,7.5-7.5,7.5c-26.27,0-52.9-2.6-58.71-3.2c-5.56,1.08-11.12,2.07-16.69,2.98l3.38,30.58
		c0.22,1.98-0.36,3.96-1.6,5.51c-1.25,1.55-3.06,2.55-5.04,2.77c-27.73,3.06-55.66,4.59-83.59,4.59s-55.86-1.53-83.59-4.59
		c-1.98-0.22-3.79-1.22-5.03-2.77c-1.24-1.55-1.82-3.53-1.6-5.51l3.38-30.62c-5.49-0.9-10.97-1.87-16.45-2.94
		c-5.81,0.6-32.44,3.2-58.71,3.2c-4.14,0-7.5-3.35-7.5-7.5c0-28.18,10.61-60.8,31.53-96.95c12.93-22.34,25.72-38.82,29.87-44
		c2.86-17.93,6.7-35.9,11.52-53.9c17.88-66.71,48.37-130.24,90.63-188.81c1.4-1.96,3.67-3.11,6.08-3.11c2.41,0,4.67,1.15,6.08,3.11
		c42.25,58.57,72.74,122.1,90.62,188.81c4.82,18,8.66,35.97,11.52,53.9c4.15,5.17,16.94,21.66,29.87,44
		C377.765,325.97,388.375,358.59,388.375,386.77z M373.085,379.2c-2.81-37.82-25.71-78.04-42.14-102.46
		c3.27,33.69,3.03,67.12-0.72,100.03C339.475,377.6,356.025,378.87,373.085,379.2z M315.085,377.16
		c7.02-59.18,2.28-120.16-14.12-181.35c-7.75-28.91-17.93-57.22-30.48-84.76c-16.1,7.55-33.83,11.51-51.74,11.51
		c-17.9,0-35.63-3.96-51.73-11.51c-12.55,27.55-22.73,55.85-30.48,84.76c-16.4,61.19-21.14,122.17-14.12,181.35
		C186.365,389.06,251.135,389.06,315.085,377.16z M293.115,418.78l-2.49-22.52c-23.91,3.22-47.89,4.83-71.87,4.83
		c-24.07,0-48.14-1.62-72.12-4.86l-2.5,22.55C193.605,423.74,243.645,423.74,293.115,418.78z M264.075,97.49
		c-12.92-26.46-28.05-52.18-45.32-77.02c-17.28,24.84-32.41,50.57-45.33,77.02c14.1,6.6,29.63,10.07,45.32,10.07
		C234.445,107.56,249.975,104.09,264.075,97.49z M107.275,376.77c-3.74-32.9-3.99-66.32-0.72-100
		c-16.43,24.44-39.32,64.66-42.14,102.43C81.495,378.87,98.035,377.6,107.275,376.77z"/>
	<path style="fill:#F48C6C;" d="M330.945,276.74c16.43,24.42,39.33,64.64,42.14,102.46c-17.06-0.33-33.61-1.6-42.86-2.43
		C333.975,343.86,334.215,310.43,330.945,276.74z"/>
	<path style="fill:#FFFFFF;" d="M300.965,195.81c16.4,61.19,21.14,122.17,14.12,181.35c-63.95,11.9-128.72,11.9-192.67,0
		c-7.02-59.18-2.28-120.16,14.12-181.35c7.75-28.91,17.93-57.21,30.48-84.76c16.1,7.55,33.83,11.51,51.73,11.51
		c17.91,0,35.64-3.96,51.74-11.51C283.035,138.59,293.215,166.9,300.965,195.81z M292.125,242.77c0-39.97-32.52-72.5-72.5-72.5
		c-39.97,0-72.5,32.53-72.5,72.5c0,39.98,32.53,72.5,72.5,72.5C259.605,315.27,292.125,282.75,292.125,242.77z"/>
	<path style="fill:#3DD0F2;" d="M290.625,396.26l2.49,22.52c-49.47,4.96-99.51,4.96-148.98,0l2.5-22.55
		c23.98,3.24,48.05,4.86,72.12,4.86C242.735,401.09,266.715,399.48,290.625,396.26z"/>
	<path d="M219.625,170.27c39.98,0,72.5,32.53,72.5,72.5c0,39.98-32.52,72.5-72.5,72.5c-39.97,0-72.5-32.52-72.5-72.5
		C147.125,202.8,179.655,170.27,219.625,170.27z M277.125,242.77c0-31.7-25.79-57.5-57.5-57.5c-31.7,0-57.5,25.8-57.5,57.5
		c0,31.71,25.8,57.5,57.5,57.5C251.335,300.27,277.125,274.48,277.125,242.77z"/>
	<path style="fill:#3DD0F2;" d="M219.625,185.27c31.71,0,57.5,25.8,57.5,57.5c0,31.71-25.79,57.5-57.5,57.5
		c-31.7,0-57.5-25.79-57.5-57.5C162.125,211.07,187.925,185.27,219.625,185.27z M264.335,242.77c0-24.65-20.05-44.71-44.71-44.71
		c-24.65,0-44.71,20.06-44.71,44.71c0,24.66,20.06,44.72,44.71,44.72C244.285,287.49,264.335,267.43,264.335,242.77z"/>
	<path d="M219.625,198.06c24.66,0,44.71,20.06,44.71,44.71c0,24.66-20.05,44.72-44.71,44.72c-24.65,0-44.71-20.06-44.71-44.72
		C174.915,218.12,194.975,198.06,219.625,198.06z M249.335,242.77c0-8.83-3.88-16.78-10.02-22.22l-29.64,50.22
		c3.11,1.11,6.46,1.72,9.95,1.72C236.015,272.49,249.335,259.16,249.335,242.77z M197.255,262.3l28.66-48.56
		c-2.03-0.44-4.13-0.68-6.29-0.68c-16.38,0-29.71,13.33-29.71,29.71C189.915,250.24,192.695,257.07,197.255,262.3z"/>
	<path style="fill:#F48C6C;" d="M218.755,20.47c17.27,24.84,32.4,50.56,45.32,77.02c-14.1,6.6-29.63,10.07-45.33,10.07
		c-15.69,0-31.22-3.47-45.32-10.07C186.345,71.04,201.475,45.31,218.755,20.47z"/>
	<path style="fill:#F48C6C;" d="M106.555,276.77c-3.27,33.68-3.02,67.1,0.72,100c-9.24,0.83-25.78,2.1-42.86,2.43
		C67.235,341.43,90.125,301.21,106.555,276.77z"/>
</g>
<g>
</g>
<g>
</g>
<g>
</g>
<g>
</g>
<g>
</g>
<g>
</g>
<g>
</g>
<g>
</g>
<g>
</g>
<g>
</g>
<g>
</g>
<g>
</g>
<g>
</g>
<g>
</g>
<g>
</g>
</svg>
