<?xml version="1.0" encoding="iso-8859-1"?>
<!-- Generator: Adobe Illustrator 19.1.0, SVG Export Plug-In . SVG Version: 6.00 Build 0)  -->
<svg version="1.1" id="Capa_1" xmlns="http://www.w3.org/2000/svg" xmlns:xlink="http://www.w3.org/1999/xlink" x="0px" y="0px"
	 viewBox="0 0 427.94 427.94" style="enable-background:new 0 0 427.94 427.94;" xml:space="preserve">
<g>
	<g id="XMLID_1_">
		<g>
			<path style="fill:#E55A42;" d="M334.715,36.25c4.96,0,9,4.04,9,9s-4.04,9-9,9s-9-4.04-9-9S329.755,36.25,334.715,36.25z"/>
			<path style="fill:#E55A42;" d="M279.245,36.25c4.97,0,9,4.04,9,9s-4.03,9-9,9c-4.96,0-9-4.04-9-9S274.285,36.25,279.245,36.25z"
				/>
			<path style="fill:#E55A42;" d="M285.335,215.02c5.76,11.07,9.04,23.64,9.04,36.96s-3.28,25.89-9.04,36.96
				c-6.89-11.02-10.62-23.82-10.62-36.96C274.715,238.83,278.445,226.04,285.335,215.02z"/>
			<path style="fill:#4785DD;" d="M276.455,201.46c-10.82,14.55-16.74,32.26-16.74,50.52c0,18.25,5.92,35.97,16.74,50.53
				c-14.76,18.2-37.28,29.87-62.48,29.87c-44.34,0-80.4-36.07-80.4-80.4s36.06-80.4,80.4-80.4
				C239.175,171.58,261.695,183.25,276.455,201.46z"/>
			<path style="fill:#E55A42;" d="M213.975,128.99c67.82,0,122.99,55.17,122.99,122.99s-55.17,122.99-122.99,122.99
				s-123-55.17-123-122.99S146.155,128.99,213.975,128.99z M309.375,251.98c0-52.6-42.8-95.4-95.4-95.4
				c-52.61,0-95.4,42.8-95.4,95.4s42.79,95.4,95.4,95.4C266.575,347.38,309.375,304.58,309.375,251.98z"/>
			<path d="M382.715,19.95v400.24c0,4.14-3.36,7.5-7.5,7.5H52.725c-4.14,0-7.5-3.36-7.5-7.5V19.95c0-10.86,8.84-19.7,19.71-19.7
				h298.08C373.875,0.25,382.715,9.09,382.715,19.95z M367.715,412.69V90.25H60.225v322.44H367.715z M367.715,75.25v-55.3
				c0-2.59-2.11-4.7-4.7-4.7h-170.79v60H367.715z M177.225,75.25v-60H64.935c-2.6,0-4.71,2.11-4.71,4.7v55.3H177.225z"/>
			<path d="M334.715,21.25c13.23,0,24,10.77,24,24s-10.77,24-24,24s-24-10.77-24-24S321.485,21.25,334.715,21.25z M343.715,45.25
				c0-4.96-4.04-9-9-9s-9,4.04-9,9s4.04,9,9,9S343.715,50.21,343.715,45.25z"/>
			<path d="M213.975,113.99c76.09,0,137.99,61.9,137.99,137.99s-61.9,137.99-137.99,137.99s-138-61.9-138-137.99
				S137.885,113.99,213.975,113.99z M336.965,251.98c0-67.82-55.17-122.99-122.99-122.99s-123,55.17-123,122.99
				s55.18,122.99,123,122.99S336.965,319.8,336.965,251.98z"/>
			<path d="M279.245,21.25c13.24,0,24,10.77,24,24s-10.76,24-24,24c-13.23,0-24-10.77-24-24S266.015,21.25,279.245,21.25z
				 M288.245,45.25c0-4.96-4.03-9-9-9c-4.96,0-9,4.04-9,9s4.04,9,9,9C284.215,54.25,288.245,50.21,288.245,45.25z"/>
			<path d="M213.975,156.58c52.6,0,95.4,42.8,95.4,95.4s-42.8,95.4-95.4,95.4c-52.61,0-95.4-42.8-95.4-95.4
				S161.365,156.58,213.975,156.58z M294.375,251.98c0-13.32-3.28-25.89-9.04-36.96c-6.89,11.02-10.62,23.81-10.62,36.96
				c0,13.14,3.73,25.94,10.62,36.96C291.095,277.87,294.375,265.3,294.375,251.98z M259.715,251.98c0-18.26,5.92-35.97,16.74-50.52
				c-14.76-18.21-37.28-29.88-62.48-29.88c-44.34,0-80.4,36.07-80.4,80.4s36.06,80.4,80.4,80.4c25.2,0,47.72-11.67,62.48-29.87
				C265.635,287.95,259.715,270.23,259.715,251.98z"/>
		</g>
		<g>
		</g>
	</g>
</g>
<g>
</g>
<g>
</g>
<g>
</g>
<g>
</g>
<g>
</g>
<g>
</g>
<g>
</g>
<g>
</g>
<g>
</g>
<g>
</g>
<g>
</g>
<g>
</g>
<g>
</g>
<g>
</g>
<g>
</g>
</svg>
