<?xml version="1.0" encoding="iso-8859-1"?>
<!-- Generator: Adobe Illustrator 19.1.0, SVG Export Plug-In . SVG Version: 6.00 Build 0)  -->
<svg version="1.1" id="Capa_1" xmlns="http://www.w3.org/2000/svg" xmlns:xlink="http://www.w3.org/1999/xlink" x="0px" y="0px"
	 viewBox="0 0 457.68 457.68" style="enable-background:new 0 0 457.68 457.68;" xml:space="preserve">
<g>
	<path d="M457.68,191.67v182.59c0,14.17-11.53,25.7-25.69,25.7H331.05v15.23c0,10.45-8.5,18.95-18.95,18.95h-80.63
		c-10.45,0-18.95-8.5-18.95-18.95v-72.33H108.16c-4.15,0-7.5-3.36-7.5-7.5c0-4.14,3.35-7.5,7.5-7.5h18.22l12.16-13.09H32.3
		c-17.81,0-32.3-14.49-32.3-32.3V55.84c0-17.81,14.49-32.3,32.3-32.3h374.88c17.81,0,32.3,14.49,32.3,32.3v111.25
		C450,170.3,457.68,180.11,457.68,191.67z M442.68,374.26v-2.05H331.05v12.75h100.94C437.88,384.96,442.68,380.16,442.68,374.26z
		 M442.68,357.21V208.72H270.19v46.31h41.91c10.45,0,18.95,8.5,18.95,18.95v83.23H442.68z M442.68,193.72v-2.05
		c0-5.9-4.8-10.7-10.69-10.7h-151.1c-5.9,0-10.7,4.8-10.7,10.7v2.05H442.68z M424.48,165.97V63.34H15v210.62h197.52
		c0.01-10.44,8.51-18.93,18.95-18.93h23.72v-63.36c0-14.17,11.53-25.7,25.7-25.7H424.48z M16.73,48.34h406.01
		c-2.8-5.79-8.71-9.8-15.56-9.8H32.3C25.45,38.54,19.53,42.55,16.73,48.34z M316.05,415.19v-9.85h-88.53v9.85
		c0,2.18,1.77,3.95,3.95,3.95h80.63C314.27,419.14,316.05,417.37,316.05,415.19z M316.05,390.34v-91.5h-88.53v91.5H316.05z
		 M316.05,283.84v-9.86c0-2.18-1.78-3.95-3.95-3.95h-80.63c-2.18,0-3.95,1.77-3.95,3.95v9.86H316.05z M212.52,327.86v-13.09h-53.5
		l-12.17,13.09H212.52z M212.52,299.77v-10.81H16.27c2.57,6.33,8.78,10.81,16.03,10.81H212.52z"/>
	<path style="fill:#F48C6C;" d="M442.68,372.21v2.05c0,5.9-4.8,10.7-10.69,10.7H331.05v-12.75H442.68z"/>
	<path style="fill:#FFFFFF;" d="M442.68,208.72v148.49H331.05v-83.23c0-10.45-8.5-18.95-18.95-18.95h-41.91v-46.31H442.68z"/>
	<path style="fill:#F48C6C;" d="M442.68,191.67v2.05H270.19v-2.05c0-5.9,4.8-10.7,10.7-10.7h151.1
		C437.88,180.97,442.68,185.77,442.68,191.67z"/>
	<path style="fill:#FFFFFF;" d="M424.48,63.34v102.63H280.89c-14.17,0-25.7,11.53-25.7,25.7v63.36h-23.72
		c-10.44,0-18.94,8.49-18.95,18.93H15V63.34H424.48z"/>
	<path style="fill:#3DD0F2;" d="M422.74,48.34H16.73c2.8-5.79,8.72-9.8,15.57-9.8h374.88C414.03,38.54,419.94,42.55,422.74,48.34z"
		/>
	<path style="fill:#F48C6C;" d="M316.05,405.34v9.85c0,2.18-1.78,3.95-3.95,3.95h-80.63c-2.18,0-3.95-1.77-3.95-3.95v-9.85H316.05z"
		/>
	<rect x="227.52" y="298.84" style="fill:#FFFFFF;" width="88.53" height="91.5"/>
	<path style="fill:#F48C6C;" d="M316.05,273.98v9.86h-88.53v-9.86c0-2.18,1.77-3.95,3.95-3.95h80.63
		C314.27,270.03,316.05,271.8,316.05,273.98z"/>
	<polygon style="fill:#3DD0F2;" points="212.52,314.77 212.52,327.86 146.85,327.86 159.02,314.77 	"/>
	<path style="fill:#3DD0F2;" d="M212.52,288.96v10.81H32.3c-7.25,0-13.46-4.48-16.03-10.81H212.52z"/>
</g>
<g>
</g>
<g>
</g>
<g>
</g>
<g>
</g>
<g>
</g>
<g>
</g>
<g>
</g>
<g>
</g>
<g>
</g>
<g>
</g>
<g>
</g>
<g>
</g>
<g>
</g>
<g>
</g>
<g>
</g>
</svg>
