<?xml version="1.0" encoding="iso-8859-1"?>
<!-- Generator: Adobe Illustrator 19.1.0, SVG Export Plug-In . SVG Version: 6.00 Build 0)  -->
<svg version="1.1" id="Capa_1" xmlns="http://www.w3.org/2000/svg" xmlns:xlink="http://www.w3.org/1999/xlink" x="0px" y="0px"
	 viewBox="0 0 437.87 437.87" style="enable-background:new 0 0 437.87 437.87;" xml:space="preserve">
<g id="XMLID_39_">
	<g>
		<rect x="15.25" y="100.955" style="fill:#E55A42;" width="12.51" height="43.06"/>
		<rect x="120.14" y="105.645" style="fill:#4785DD;" width="21.04" height="198.5"/>
		<rect x="180.53" y="105.645" style="fill:#4785DD;" width="21.05" height="198.5"/>
		<rect x="240.93" y="105.645" style="fill:#4785DD;" width="21.05" height="198.5"/>
		<rect x="301.33" y="105.645" style="fill:#4785DD;" width="21.05" height="198.5"/>
		<rect x="361.73" y="105.645" style="fill:#4785DD;" width="21.04" height="198.5"/>
		<path style="fill:#E2C744;" d="M400.56,346.295c10.83,0,19.65,8.82,19.65,19.66c0,10.84-8.82,19.65-19.65,19.65
			c-10.84,0-19.66-8.81-19.66-19.65C380.9,355.115,389.72,346.295,400.56,346.295z"/>
		<path style="fill:#E2C744;" d="M92.03,346.295c10.84,0,19.66,8.82,19.66,19.66c0,10.84-8.82,19.65-19.66,19.65
			s-19.65-8.81-19.65-19.65C72.38,355.115,81.19,346.295,92.03,346.295z"/>
		<path d="M437.62,64.865v280.05c0,4.65-1.15,9.12-3.33,13.12c0.6,2.55,0.92,5.19,0.92,7.92c0,19.11-15.55,34.65-34.65,34.65
			c-19.11,0-34.66-15.54-34.66-34.65c0-12.61,6.78-23.67,16.88-29.73v-17.08h-21.05v33.7c0,10.85-8.83,19.67-19.68,19.67
			c-10.84,0-19.67-8.82-19.67-19.67v-33.7h-21.05v33.7c0,10.85-8.83,19.67-19.68,19.67c-10.84,0-19.67-8.82-19.67-19.67v-33.7
			h-21.05v33.7c0,10.85-8.83,19.67-19.67,19.67c-10.85,0-19.68-8.82-19.68-19.67v-33.7h-21.05v33.7c0,10.85-8.82,19.67-19.67,19.67
			s-19.68-8.82-19.68-19.67v-33.7h-22.83v24.3c5.19,6.06,8.34,13.92,8.34,22.51c0,19.11-15.55,34.65-34.66,34.65
			c-16.86,0-30.95-12.11-34.02-28.09h-2.64c-15.22,0-27.61-12.38-27.61-27.6v-185.9H7.75c-4.14,0-7.5-3.36-7.5-7.5v-58.06
			c0-4.14,3.36-7.5,7.5-7.5h20.01v-21.09c0-15.22,12.39-27.6,27.61-27.6h55.48c4.14,0,7.5,3.36,7.5,7.5v45.88h22.83v-33.71
			c0-10.84,8.83-19.67,19.68-19.67s19.67,8.83,19.67,19.67v33.71h21.05v-33.71c0-10.84,8.83-19.67,19.68-19.67
			c10.84,0,19.67,8.83,19.67,19.67v33.71h21.05v-33.71c0-10.84,8.83-19.67,19.67-19.67c10.85,0,19.68,8.83,19.68,19.67v33.71h21.05
			v-33.71c0-10.84,8.83-19.67,19.67-19.67c10.85,0,19.68,8.83,19.68,19.67v33.71h21.05v-45.88c0-4.14,3.35-7.5,7.5-7.5h19.74
			C425.24,37.265,437.62,49.645,437.62,64.865z M422.62,339.245V64.865c0-6.95-5.65-12.6-12.6-12.6h-12.24v279.15
			c0.91-0.07,1.84-0.12,2.78-0.12C408.93,331.295,416.62,334.285,422.62,339.245z M420.21,365.955c0-10.84-8.82-19.66-19.65-19.66
			c-10.84,0-19.66,8.82-19.66,19.66c0,10.84,8.82,19.65,19.66,19.65C411.39,385.605,420.21,376.795,420.21,365.955z M382.77,304.145
			v-198.5h-21.04v198.5H382.77z M346.73,352.845V56.935c0-2.57-2.1-4.67-4.68-4.67c-2.57,0-4.67,2.1-4.67,4.67v295.91
			c0,2.58,2.1,4.67,4.67,4.67C344.63,357.515,346.73,355.425,346.73,352.845z M322.38,304.145v-198.5h-21.05v198.5H322.38z
			 M286.33,352.845V56.935c0-2.57-2.1-4.67-4.68-4.67c-2.57,0-4.67,2.1-4.67,4.67v295.91c0,2.58,2.1,4.67,4.67,4.67
			C284.23,357.515,286.33,355.425,286.33,352.845z M261.98,304.145v-198.5h-21.05v198.5H261.98z M225.93,352.845V56.935
			c0-2.57-2.1-4.67-4.67-4.67c-2.58,0-4.68,2.1-4.68,4.67v295.91c0,2.58,2.1,4.67,4.68,4.67
			C223.83,357.515,225.93,355.425,225.93,352.845z M201.58,304.145v-198.5h-21.05v198.5H201.58z M165.53,352.845V56.935
			c0-2.57-2.1-4.67-4.67-4.67c-2.58,0-4.68,2.1-4.68,4.67v295.91c0,2.58,2.1,4.67,4.68,4.67
			C163.43,357.515,165.53,355.425,165.53,352.845z M141.18,304.145v-198.5h-21.04v198.5H141.18z M111.69,365.955
			c0-10.84-8.82-19.66-19.66-19.66s-19.65,8.82-19.65,19.66c0,10.84,8.81,19.65,19.65,19.65S111.69,376.795,111.69,365.955z
			 M103.35,333.205V52.265H55.37c-6.95,0-12.61,5.65-12.61,12.6v28.59v58.06v193.4c0,6.95,5.66,12.6,12.61,12.6h3.05
			c3.78-15.04,17.41-26.22,33.61-26.22C95.99,331.295,99.8,331.975,103.35,333.205z M27.76,144.015v-43.06H15.25v43.06H27.76z"/>
	</g>
	<g>
	</g>
</g>
<g>
</g>
<g>
</g>
<g>
</g>
<g>
</g>
<g>
</g>
<g>
</g>
<g>
</g>
<g>
</g>
<g>
</g>
<g>
</g>
<g>
</g>
<g>
</g>
<g>
</g>
<g>
</g>
<g>
</g>
</svg>
