<?xml version="1.0" encoding="iso-8859-1"?>
<!-- Generator: Adobe Illustrator 19.1.0, SVG Export Plug-In . SVG Version: 6.00 Build 0)  -->
<svg version="1.1" id="Capa_1" xmlns="http://www.w3.org/2000/svg" xmlns:xlink="http://www.w3.org/1999/xlink" x="0px" y="0px"
	 viewBox="0 0 433.093 433.093" style="enable-background:new 0 0 433.093 433.093;" xml:space="preserve">
<g>
	<path d="M349.047,132.503c0,20.77-4.68,40.66-13.9,59.12c-16.42,32.88-25.1,69.13-25.1,104.82v42.77c0,37.27-28.53,68-64.89,71.53
		c-3.21,12.82-14.82,22.35-28.62,22.35s-25.41-9.53-28.62-22.35c-36.36-3.53-64.87-34.26-64.87-71.53v-42.06
		c0-36.95-8.48-73.04-24.51-104.35c-9.53-18.62-14.41-38.73-14.49-59.77c-0.29-72.34,58.31-132.02,130.62-133.02
		c35.73-0.49,69.47,13.05,94.91,38.14C335.027,63.253,349.047,96.753,349.047,132.503z M321.727,184.923
		c8.17-16.36,12.32-34,12.32-52.42c0-31.7-12.43-61.41-35-83.67c-22.56-22.25-52.45-34.26-84.18-33.82
		c-64.12,0.89-116.08,53.81-115.82,117.96c0.07,18.67,4.39,36.49,12.84,52.99c17.11,33.42,26.16,71.87,26.16,111.19v8.94h39.52
		v-77.4l-18.85-18.85c-2.5,1.11-5.25,1.75-8.15,1.75c-11.03,0-20-8.97-20-20s8.97-20,20-20s20,8.97,20,20
		c0,2.63-0.52,5.14-1.45,7.44l21.26,21.25c1.4,1.41,2.19,3.32,2.19,5.31v80.5h14.75v-184.98c-7.32-2.97-12.5-10.15-12.5-18.52
		c0-11.03,8.97-20,20-20s20,8.97,20,20c0,8.37-5.18,15.55-12.5,18.52v184.98h14.75v-137.75c0-1.99,0.79-3.9,2.2-5.31l21.25-21.25
		c-0.92-2.3-1.45-4.81-1.45-7.44c0-11.03,8.97-20,20-20s20,8.97,20,20s-8.97,20-20,20c-2.9,0-5.65-0.64-8.14-1.75l-18.86,18.85
		v134.65h42.98v-9.65C295.047,258.433,304.267,219.873,321.727,184.923z M295.047,336.093v-15h-157v15H295.047z M293.787,351.093
		h-154.49c1.14,5.31,3.01,10.35,5.51,15h143.47C290.777,361.443,292.657,356.403,293.787,351.093z M284.067,134.343
		c0-2.76-2.24-5-5-5c-2.75,0-5,2.24-5,5c0,2.75,2.25,5,5,5C281.827,139.343,284.067,137.093,284.067,134.343z M276.607,381.093
		h-120.13c10.14,9.3,23.64,15,38.44,15h43.25C252.977,396.093,266.477,390.393,276.607,381.093z M228.927,411.093h-24.77
		c2.54,4.18,7.13,7,12.38,7S226.377,415.273,228.927,411.093z M219.817,102.593c0-2.76-2.24-5-5-5c-2.75,0-5,2.24-5,5
		c0,2.75,2.25,5,5,5C217.577,107.593,219.817,105.343,219.817,102.593z M155.567,191.593c0-2.76-2.24-5-5-5c-2.75,0-5,2.24-5,5
		c0,2.75,2.25,5,5,5C153.327,196.593,155.567,194.343,155.567,191.593z"/>
	<rect x="138.047" y="321.093" style="fill:#3DD0F2;" width="157" height="15"/>
	<path style="fill:#3DD0F2;" d="M139.297,351.093h154.49c-1.13,5.31-3.01,10.35-5.51,15h-143.47
		C142.307,361.443,140.437,356.403,139.297,351.093z"/>
	<path style="fill:#F48C6C;" d="M279.067,129.343c2.76,0,5,2.24,5,5c0,2.75-2.24,5-5,5c-2.75,0-5-2.25-5-5
		C274.067,131.583,276.317,129.343,279.067,129.343z"/>
	<path style="fill:#3DD0F2;" d="M156.477,381.093h120.13c-10.13,9.3-23.63,15-38.44,15h-43.25
		C180.117,396.093,166.617,390.393,156.477,381.093z"/>
	<path style="fill:#F48C6C;" d="M214.817,97.593c2.76,0,5,2.24,5,5c0,2.75-2.24,5-5,5c-2.75,0-5-2.25-5-5
		C209.817,99.833,212.067,97.593,214.817,97.593z"/>
	<path style="fill:#F48C6C;" d="M150.567,186.593c2.76,0,5,2.24,5,5c0,2.75-2.24,5-5,5c-2.75,0-5-2.25-5-5
		C145.567,188.833,147.817,186.593,150.567,186.593z"/>
</g>
<g>
</g>
<g>
</g>
<g>
</g>
<g>
</g>
<g>
</g>
<g>
</g>
<g>
</g>
<g>
</g>
<g>
</g>
<g>
</g>
<g>
</g>
<g>
</g>
<g>
</g>
<g>
</g>
<g>
</g>
</svg>
