<?xml version="1.0" encoding="iso-8859-1"?>
<!-- Generator: Adobe Illustrator 19.1.0, SVG Export Plug-In . SVG Version: 6.00 Build 0)  -->
<svg version="1.1" id="Capa_1" xmlns="http://www.w3.org/2000/svg" xmlns:xlink="http://www.w3.org/1999/xlink" x="0px" y="0px"
	 viewBox="0 0 432.61 432.61" style="enable-background:new 0 0 432.61 432.61;" xml:space="preserve">
<g>
	<path d="M431.89,213.105c0.96,2.03,0.96,4.38,0,6.41c-19.03,40.26-48.9,74.35-86.38,98.58c-38.49,24.88-83.17,38.04-129.2,38.04
		c-46.04,0-90.72-13.16-129.21-38.04c-37.48-24.23-67.35-58.32-86.38-98.58c-0.96-2.03-0.96-4.38,0-6.41
		c19.03-40.27,48.9-74.36,86.38-98.59c38.49-24.88,83.17-38.04,129.21-38.04c46.03,0,90.71,13.16,129.2,38.04
		C382.99,138.745,412.86,172.835,431.89,213.105z M416.79,216.305c-17.89-36.34-45.29-67.13-79.42-89.19
		c-36.06-23.31-77.92-35.64-121.06-35.64s-85.01,12.33-121.07,35.64c-34.13,22.06-61.53,52.85-79.41,89.19
		c17.88,36.34,45.28,67.13,79.41,89.19c36.06,23.32,77.93,35.64,121.07,35.64s85-12.32,121.06-35.64
		C371.5,283.435,398.9,252.645,416.79,216.305z"/>
	<path d="M216.31,104.725c61.52,0,111.57,50.06,111.57,111.58s-50.05,111.58-111.57,111.58c-61.53,0-111.58-50.06-111.58-111.58
		S154.78,104.725,216.31,104.725z M312.88,216.305c0-53.25-43.32-96.58-96.57-96.58c-53.26,0-96.58,43.33-96.58,96.58
		s43.32,96.58,96.58,96.58C269.56,312.885,312.88,269.555,312.88,216.305z"/>
	<path style="fill:#F48C6C;" d="M216.31,119.725c53.25,0,96.57,43.33,96.57,96.58s-43.32,96.58-96.57,96.58
		c-53.26,0-96.58-43.33-96.58-96.58S163.05,119.725,216.31,119.725z M295.45,216.305c0-43.64-35.5-79.15-79.14-79.15
		c-43.65,0-79.15,35.51-79.15,79.15s35.5,79.15,79.15,79.15C259.95,295.455,295.45,259.945,295.45,216.305z"/>
	<path style="fill:#3DD0F2;" d="M279.79,207.125c0.43,3,0.66,6.06,0.66,9.18c0,35.37-28.77,64.15-64.14,64.15
		c-34.77,0-63.14-27.8-64.1-62.33h23.49l18.86,18.85c-1.12,2.49-1.75,5.24-1.75,8.15c0,11.02,8.97,20,20,20c11.02,0,20-8.98,20-20
		c0-11.03-8.98-20-20-20c-2.63,0-5.14,0.52-7.45,1.45l-21.25-21.26c-1.41-1.4-3.31-2.19-5.3-2.19h-25.28
		c6.1-29.07,31.92-50.97,62.78-50.97c26.81,0,49.83,16.55,59.4,39.97h-24.87c-2.97-7.33-10.15-12.51-18.53-12.51
		c-11.03,0-20,8.97-20,20s8.97,20,20,20c8.37,0,15.55-5.18,18.53-12.49H279.79z"/>
	<path d="M216.31,137.155c43.64,0,79.14,35.51,79.14,79.15s-35.5,79.15-79.14,79.15c-43.65,0-79.15-35.51-79.15-79.15
		S172.66,137.155,216.31,137.155z M280.45,216.305c0-3.12-0.23-6.18-0.66-9.18h-28.95c-2.98,7.31-10.16,12.49-18.53,12.49
		c-11.03,0-20-8.97-20-20s8.97-20,20-20c8.38,0,15.56,5.18,18.53,12.51h24.87c-9.57-23.42-32.59-39.97-59.4-39.97
		c-30.86,0-56.68,21.9-62.78,50.97h25.28c1.99,0,3.89,0.79,5.3,2.19l21.25,21.26c2.31-0.93,4.82-1.45,7.45-1.45
		c11.02,0,20,8.97,20,20c0,11.02-8.98,20-20,20c-11.03,0-20-8.98-20-20c0-2.91,0.63-5.66,1.75-8.15l-18.86-18.85h-23.49
		c0.96,34.53,29.33,62.33,64.1,62.33C251.68,280.455,280.45,251.675,280.45,216.305z M237.31,199.615c0-2.75-2.24-5-5-5
		c-2.76,0-5,2.25-5,5c0,2.76,2.24,5,5,5C235.07,204.615,237.31,202.375,237.31,199.615z M217.81,245.125c0-2.76-2.25-5-5-5
		c-2.76,0-5,2.24-5,5c0,2.75,2.24,5,5,5C215.56,250.125,217.81,247.875,217.81,245.125z"/>
</g>
<g>
</g>
<g>
</g>
<g>
</g>
<g>
</g>
<g>
</g>
<g>
</g>
<g>
</g>
<g>
</g>
<g>
</g>
<g>
</g>
<g>
</g>
<g>
</g>
<g>
</g>
<g>
</g>
<g>
</g>
</svg>
