<?xml version="1.0" encoding="iso-8859-1"?>
<!-- Generator: Adobe Illustrator 19.1.0, SVG Export Plug-In . SVG Version: 6.00 Build 0)  -->
<svg version="1.1" id="Capa_1" xmlns="http://www.w3.org/2000/svg" xmlns:xlink="http://www.w3.org/1999/xlink" x="0px" y="0px"
	 viewBox="0 0 457.44 457.44" style="enable-background:new 0 0 457.44 457.44;" xml:space="preserve">
<g>
	<g id="XMLID_23_">
		<g>
			<path style="fill:#E55A42;" d="M64.54,239.46v93.23H44.22h-1.6c-5.64,0-10.23-4.59-10.23-10.23v-54.23
				c0.01-0.18,0.01-0.36,0.01-0.54c-0.08-2.7-1.6-5.16-4-6.42c-8.11-4.29-13.15-12.65-13.15-21.81c0-13.59,11.05-24.64,24.64-24.64
				S64.54,225.87,64.54,239.46z"/>
			<path style="fill:#E55A42;" d="M442.19,239.46c0,9.16-5.04,17.52-13.16,21.81c-2.39,1.26-3.92,3.72-3.99,6.43
				c0,0.14,0,0.29,0,0.44v54.32c0,5.64-4.59,10.23-10.23,10.23h-1.6h-20.32v-93.23c0-13.59,11.06-24.64,24.65-24.64
				S442.19,225.87,442.19,239.46z"/>
			<path d="M457.19,239.46c0,13.17-6.47,25.29-17.15,32.65v50.35c0,11.88-8.25,21.86-19.33,24.53v17.29c0,4.15-3.36,7.5-7.5,7.5
				h-37.15c-4.14,0-7.5-3.35-7.5-7.5v-16.59H88.87v16.59c0,4.15-3.36,7.5-7.5,7.5H44.22c-4.14,0-7.5-3.35-7.5-7.5v-17.29
				c-11.07-2.67-19.33-12.65-19.33-24.53v-50.35c-10.68-7.36-17.14-19.48-17.14-32.65c0-20.64,15.86-37.65,36.04-39.47v-56.35
				c0-31.97,26.01-57.98,57.98-57.98h268.89c31.97,0,57.98,26.01,57.98,57.98v56.35C441.32,201.81,457.19,218.82,457.19,239.46z
				 M429.03,261.27c8.12-4.29,13.16-12.65,13.16-21.81c0-13.59-11.06-24.64-24.65-24.64s-24.65,11.05-24.65,24.64v93.23h20.32h1.6
				c5.64,0,10.23-4.59,10.23-10.23v-54.32c0-0.15,0-0.3,0-0.44C425.11,264.99,426.64,262.53,429.03,261.27z M406.14,201.49v-57.85
				c0-23.7-19.28-42.98-42.98-42.98H94.27c-23.7,0-42.98,19.28-42.98,42.98v57.85c16.32,4.91,28.25,20.07,28.25,37.97v12.13h298.35
				v-12.13C377.89,221.56,389.82,206.4,406.14,201.49z M405.71,356.78v-9.09h-20.32h-1.83v9.09H405.71z M377.89,332.69v-12.54H79.54
				v12.54h1.83h294.69H377.89z M377.89,305.15v-38.56H79.54v38.56H377.89z M73.87,356.78v-9.09h-1.83H51.72v9.09H73.87z
				 M64.54,332.69v-93.23c0-13.59-11.06-24.64-24.65-24.64s-24.64,11.05-24.64,24.64c0,9.16,5.04,17.52,13.15,21.81
				c2.4,1.26,3.92,3.72,4,6.42c0,0.18,0,0.36-0.01,0.54v54.23c0,5.64,4.59,10.23,10.23,10.23h1.6H64.54z"/>
			<path style="fill:#E55A42;" d="M406.14,143.64v57.85c-16.32,4.91-28.25,20.07-28.25,37.97v12.13H79.54v-12.13
				c0-17.9-11.93-33.06-28.25-37.97v-57.85c0-23.7,19.28-42.98,42.98-42.98h268.89C386.86,100.66,406.14,119.94,406.14,143.64z
				 M349.72,146.96c0-1.98-0.8-3.91-2.2-5.31c-1.4-1.39-3.33-2.19-5.3-2.19c-1.98,0-3.91,0.8-5.31,2.19
				c-1.39,1.4-2.19,3.33-2.19,5.31c0,1.97,0.8,3.9,2.19,5.3c1.4,1.4,3.33,2.2,5.31,2.2c1.97,0,3.9-0.8,5.3-2.2
				C348.92,150.86,349.72,148.93,349.72,146.96z M349.72,205.96c0-1.98-0.8-3.91-2.2-5.31c-1.4-1.39-3.33-2.19-5.3-2.19
				c-1.98,0-3.91,0.8-5.31,2.19c-1.39,1.4-2.19,3.33-2.19,5.31c0,1.97,0.8,3.9,2.19,5.3c1.4,1.4,3.33,2.2,5.31,2.2
				c1.97,0,3.9-0.8,5.3-2.2C348.92,209.86,349.72,207.93,349.72,205.96z M274.05,146.96c0-1.98-0.8-3.91-2.2-5.31
				c-1.39-1.39-3.33-2.19-5.3-2.19s-3.91,0.8-5.3,2.19c-1.4,1.4-2.2,3.33-2.2,5.31c0,1.97,0.8,3.9,2.2,5.3
				c1.39,1.4,3.33,2.2,5.3,2.2s3.91-0.8,5.3-2.2C273.25,150.86,274.05,148.93,274.05,146.96z M274.05,205.96
				c0-1.98-0.8-3.91-2.2-5.31c-1.39-1.39-3.33-2.19-5.3-2.19s-3.91,0.8-5.3,2.19c-1.4,1.4-2.2,3.33-2.2,5.31c0,1.97,0.8,3.9,2.2,5.3
				c1.39,1.4,3.33,2.2,5.3,2.2s3.91-0.8,5.3-2.2C273.25,209.86,274.05,207.93,274.05,205.96z M198.38,146.96
				c0-1.98-0.8-3.91-2.19-5.31c-1.4-1.39-3.33-2.19-5.31-2.19c-1.97,0-3.9,0.8-5.3,2.19c-1.4,1.4-2.2,3.33-2.2,5.31
				c0,1.97,0.8,3.9,2.2,5.3c1.4,1.4,3.33,2.2,5.3,2.2c1.98,0,3.91-0.8,5.31-2.2C197.58,150.86,198.38,148.93,198.38,146.96z
				 M198.38,205.96c0-1.98-0.8-3.91-2.19-5.31c-1.4-1.39-3.33-2.19-5.31-2.19c-1.97,0-3.9,0.8-5.3,2.19c-1.4,1.4-2.2,3.33-2.2,5.31
				c0,1.97,0.8,3.9,2.2,5.3c1.4,1.4,3.33,2.2,5.3,2.2c1.98,0,3.91-0.8,5.31-2.2C197.58,209.86,198.38,207.93,198.38,205.96z
				 M122.72,146.96c0-1.98-0.8-3.91-2.2-5.31c-1.4-1.39-3.33-2.19-5.3-2.19c-1.98,0-3.91,0.8-5.31,2.19
				c-1.39,1.4-2.19,3.33-2.19,5.31c0,1.97,0.8,3.9,2.19,5.3c1.4,1.4,3.33,2.2,5.31,2.2c1.97,0,3.9-0.8,5.3-2.2
				C121.92,150.86,122.72,148.93,122.72,146.96z M122.72,205.96c0-1.98-0.8-3.91-2.2-5.31c-1.4-1.39-3.33-2.19-5.3-2.19
				c-1.98,0-3.91,0.8-5.31,2.19c-1.39,1.4-2.19,3.33-2.19,5.31c0,1.97,0.8,3.9,2.19,5.3c1.4,1.4,3.33,2.2,5.31,2.2
				c1.97,0,3.9-0.8,5.3-2.2C121.92,209.86,122.72,207.93,122.72,205.96z"/>
			<polygon style="fill:#E2C744;" points="405.71,347.69 405.71,356.78 383.56,356.78 383.56,347.69 385.39,347.69 			"/>
			<polygon style="fill:#E2C744;" points="377.89,320.15 377.89,332.69 376.06,332.69 81.37,332.69 79.54,332.69 79.54,320.15 			
				"/>
			<rect x="79.54" y="266.59" style="fill:#E55A42;" width="298.35" height="38.56"/>
			<path d="M347.52,141.65c1.4,1.4,2.2,3.33,2.2,5.31c0,1.97-0.8,3.9-2.2,5.3c-1.4,1.4-3.33,2.2-5.3,2.2c-1.98,0-3.91-0.8-5.31-2.2
				c-1.39-1.4-2.19-3.33-2.19-5.3c0-1.98,0.8-3.91,2.19-5.31c1.4-1.39,3.33-2.19,5.31-2.19
				C344.19,139.46,346.12,140.26,347.52,141.65z"/>
			<path d="M347.52,200.65c1.4,1.4,2.2,3.33,2.2,5.31c0,1.97-0.8,3.9-2.2,5.3c-1.4,1.4-3.33,2.2-5.3,2.2c-1.98,0-3.91-0.8-5.31-2.2
				c-1.39-1.4-2.19-3.33-2.19-5.3c0-1.98,0.8-3.91,2.19-5.31c1.4-1.39,3.33-2.19,5.31-2.19
				C344.19,198.46,346.12,199.26,347.52,200.65z"/>
			<path d="M271.85,141.65c1.4,1.4,2.2,3.33,2.2,5.31c0,1.97-0.8,3.9-2.2,5.3c-1.39,1.4-3.33,2.2-5.3,2.2s-3.91-0.8-5.3-2.2
				c-1.4-1.4-2.2-3.33-2.2-5.3c0-1.98,0.8-3.91,2.2-5.31c1.39-1.39,3.33-2.19,5.3-2.19S270.46,140.26,271.85,141.65z"/>
			<path d="M271.85,200.65c1.4,1.4,2.2,3.33,2.2,5.31c0,1.97-0.8,3.9-2.2,5.3c-1.39,1.4-3.33,2.2-5.3,2.2s-3.91-0.8-5.3-2.2
				c-1.4-1.4-2.2-3.33-2.2-5.3c0-1.98,0.8-3.91,2.2-5.31c1.39-1.39,3.33-2.19,5.3-2.19S270.46,199.26,271.85,200.65z"/>
			<path d="M196.19,141.65c1.39,1.4,2.19,3.33,2.19,5.31c0,1.97-0.8,3.9-2.19,5.3c-1.4,1.4-3.33,2.2-5.31,2.2
				c-1.97,0-3.9-0.8-5.3-2.2c-1.4-1.4-2.2-3.33-2.2-5.3c0-1.98,0.8-3.91,2.2-5.31c1.4-1.39,3.33-2.19,5.3-2.19
				C192.86,139.46,194.79,140.26,196.19,141.65z"/>
			<path d="M196.19,200.65c1.39,1.4,2.19,3.33,2.19,5.31c0,1.97-0.8,3.9-2.19,5.3c-1.4,1.4-3.33,2.2-5.31,2.2
				c-1.97,0-3.9-0.8-5.3-2.2c-1.4-1.4-2.2-3.33-2.2-5.3c0-1.98,0.8-3.91,2.2-5.31c1.4-1.39,3.33-2.19,5.3-2.19
				C192.86,198.46,194.79,199.26,196.19,200.65z"/>
			<path d="M120.52,141.65c1.4,1.4,2.2,3.33,2.2,5.31c0,1.97-0.8,3.9-2.2,5.3c-1.4,1.4-3.33,2.2-5.3,2.2c-1.98,0-3.91-0.8-5.31-2.2
				c-1.39-1.4-2.19-3.33-2.19-5.3c0-1.98,0.8-3.91,2.19-5.31c1.4-1.39,3.33-2.19,5.31-2.19
				C117.19,139.46,119.12,140.26,120.52,141.65z"/>
			<path d="M120.52,200.65c1.4,1.4,2.2,3.33,2.2,5.31c0,1.97-0.8,3.9-2.2,5.3c-1.4,1.4-3.33,2.2-5.3,2.2c-1.98,0-3.91-0.8-5.31-2.2
				c-1.39-1.4-2.19-3.33-2.19-5.3c0-1.98,0.8-3.91,2.19-5.31c1.4-1.39,3.33-2.19,5.31-2.19
				C117.19,198.46,119.12,199.26,120.52,200.65z"/>
			<polygon style="fill:#E2C744;" points="73.87,347.69 73.87,356.78 51.72,356.78 51.72,347.69 72.04,347.69 			"/>
		</g>
		<g>
		</g>
	</g>
</g>
<g>
</g>
<g>
</g>
<g>
</g>
<g>
</g>
<g>
</g>
<g>
</g>
<g>
</g>
<g>
</g>
<g>
</g>
<g>
</g>
<g>
</g>
<g>
</g>
<g>
</g>
<g>
</g>
<g>
</g>
</svg>
